<?xml version="1.0" encoding="UTF-8" standalone="no"?>
<!-- Created with Inkscape (http://www.inkscape.org/) -->

<svg
   xmlns:osb="http://www.openswatchbook.org/uri/2009/osb"
   xmlns:dc="http://purl.org/dc/elements/1.1/"
   xmlns:cc="http://creativecommons.org/ns#"
   xmlns:rdf="http://www.w3.org/1999/02/22-rdf-syntax-ns#"
   xmlns:svg="http://www.w3.org/2000/svg"
   xmlns="http://www.w3.org/2000/svg"
   xmlns:xlink="http://www.w3.org/1999/xlink"
   xmlns:sodipodi="http://sodipodi.sourceforge.net/DTD/sodipodi-0.dtd"
   xmlns:inkscape="http://www.inkscape.org/namespaces/inkscape"
   width="559.33508"
   height="469.24277"
   id="svg2"
   version="1.1"
   inkscape:version="0.92.2 (5c3e80d, 2017-08-06)"
   sodipodi:docname="petrielabs_logo.svg">
  <sodipodi:namedview
     id="base"
     pagecolor="#ffffff"
     bordercolor="#666666"
     borderopacity="1.0"
     inkscape:pageopacity="0.0"
     inkscape:pageshadow="2"
     inkscape:zoom="1.1790471"
     inkscape:cx="265.43104"
     inkscape:cy="235.77391"
     inkscape:document-units="px"
     inkscape:current-layer="layer1"
     showgrid="false"
     inkscape:window-width="1660"
     inkscape:window-height="1354"
     inkscape:window-x="270"
     inkscape:window-y="229"
     inkscape:window-maximized="0"
     inkscape:snap-page="true"
     fit-margin-top="0"
     fit-margin-left="0"
     fit-margin-right="0"
     fit-margin-bottom="0" />
  <defs
     id="defs4">
    <linearGradient
       inkscape:collect="always"
       id="linearGradient7297">
      <stop
         style="stop-color:#000000;stop-opacity:1;"
         offset="0"
         id="stop7293" />
      <stop
         style="stop-color:#000000;stop-opacity:0;"
         offset="1"
         id="stop7295" />
    </linearGradient>
    <linearGradient
       id="linearGradient7181"
       osb:paint="solid">
      <stop
         style="stop-color:#008080;stop-opacity:1;"
         offset="0"
         id="stop7179" />
    </linearGradient>
    <inkscape:perspective
       id="perspective10"
       inkscape:persp3d-origin="372.04724 : 350.78739 : 1"
       inkscape:vp_z="744.09448 : 526.18109 : 1"
       inkscape:vp_y="0 : 1000 : 0"
       inkscape:vp_x="0 : 526.18109 : 1"
       sodipodi:type="inkscape:persp3d" />
    <inkscape:perspective
       sodipodi:type="inkscape:persp3d"
       inkscape:vp_x="0 : 0.5 : 1"
       inkscape:vp_y="0 : 1000 : 0"
       inkscape:vp_z="1 : 0.5 : 1"
       inkscape:persp3d-origin="0.5 : 0.33333333 : 1"
       id="perspective2896" />
    <filter
       inkscape:collect="always"
       style="color-interpolation-filters:sRGB"
       id="filter7257"
       x="-0.0176"
       width="1.0352"
       y="-0.021120001"
       height="1.04224">
      <feGaussianBlur
         inkscape:collect="always"
         stdDeviation="3.74"
         id="feGaussianBlur7259" />
    </filter>
    <linearGradient
       inkscape:collect="always"
       xlink:href="#linearGradient7297"
       id="linearGradient7299"
       x1="107.62177"
       y1="615.18414"
       x2="635.57379"
       y2="615.18414"
       gradientUnits="userSpaceOnUse" />
  </defs>
  <metadata
     id="metadata7">
    <rdf:RDF>
      <cc:Work
         rdf:about="">
        <dc:format>image/svg+xml</dc:format>
        <dc:type
           rdf:resource="http://purl.org/dc/dcmitype/StillImage" />
        <dc:title></dc:title>
      </cc:Work>
    </rdf:RDF>
  </metadata>
  <g
     id="layer1"
     inkscape:groupmode="layer"
     inkscape:label="Layer 1"
     transform="translate(-92.354284,-382.68312)">
    <rect
       style="fill:#008589;fill-opacity:0.48188405;stroke:url(#linearGradient7299);stroke-opacity:1;filter:url(#filter7257)"
       id="rect4914"
       width="510"
       height="425"
       x="116.59777"
       y="402.68411"
       transform="matrix(1.0967354,0,0,1.1041007,-35.522621,-61.920681)" />
    <path
       d="m 287.89956,487.9458 c -0.18107,0.0805 -0.36505,0.15475 -0.54322,0.24149 -0.76274,0.37133 -1.43659,0.81356 -1.27051,0.71924 10.02266,-5.69158 6.59421,-3.89927 4.46125,-2.45452 -1.76197,1.38558 -3.00458,3.34826 -4.20409,5.21598 -0.84541,1.41979 -1.54052,2.94355 -1.68311,4.60296 -0.0175,1.95646 0.65437,3.8031 1.32328,5.61237 1.01494,2.59238 2.28364,5.07101 3.89315,7.34198 1.11582,1.32835 2.23928,2.68455 3.68635,3.67258 1.23443,0.84284 2.15321,1.23607 3.51585,1.91648 4.54032,2.15922 9.49876,2.93148 14.45356,3.40346 4.42937,0.31993 8.8289,-0.11808 13.17543,-0.94622 3.43136,-0.81669 6.76043,-2.04059 9.90047,-3.64844 0.87331,-0.44718 3.45008,-1.87008 2.57854,-1.41946 -1.23714,0.63966 -2.45042,1.32446 -3.67563,1.9867 3.1026,-2.00663 5.29146,-4.14255 6.20639,-7.8339 0.15744,-0.63517 0.20732,-1.29227 0.31098,-1.9384 0.3674,-4.593 -0.46462,-9.16915 -1.14181,-13.69658 l 6.23347,-3.29363 v 0 c 0.6857,4.58083 1.54847,9.19482 1.30141,13.84516 -0.0842,0.682 -0.11015,1.37378 -0.25273,2.04601 -0.84752,3.99578 -2.82242,6.13408 -6.1397,8.33626 -6.98657,4.15316 -12.97728,8.18443 -20.97303,9.88235 -4.38421,0.78521 -8.82454,1.16738 -13.27746,0.77121 -5.01288,-0.5512 -10.00728,-1.44017 -14.61233,-3.59771 -1.36176,-0.65579 -2.48123,-1.12819 -3.72847,-1.9642 -1.51329,-1.01435 -2.65426,-2.46235 -3.82357,-3.83023 -1.63434,-2.33043 -2.85999,-4.89123 -3.927,-7.52704 -0.75268,-1.86574 -1.58172,-3.74986 -1.6122,-5.79513 -0.004,-1.79785 0.75561,-3.45368 1.62573,-4.99807 0.7013,-1.1457 1.45962,-2.2405 2.24376,-3.33149 0.065,-0.0905 1.08272,-1.47634 1.25756,-1.66821 0.14601,-0.16025 0.32579,-0.28611 0.48869,-0.42916 0.61646,-0.4808 0.47716,-0.40333 1.17548,-0.81478 2.71468,-1.5995 5.63588,-2.89813 8.79762,-4.01965 z"
       id="path2822"
       style="fill:#000000;fill-opacity:1;fill-rule:nonzero;stroke:none"
       inkscape:connector-curvature="0"
       sodipodi:nodetypes="ccccccccccccccccccccccccccccccccccccc" />
    <path
       d="m 127.95266,518.24488 c 3.06564,0.13401 6.1196,-0.26432 9.14982,-0.68367 4.73758,-0.82734 9.48517,-1.59078 14.22986,-2.3766 5.79245,-0.79373 11.57883,-1.62465 17.36795,-2.44433 7.86002,-1.25953 15.71956,-2.52252 23.574,-3.81755 9.00619,-1.47163 17.96803,-3.19646 26.96964,-4.69446 7.6288,-1.26389 15.28184,-2.38099 22.93267,-3.50412 6.78879,-1.16376 13.3834,-3.20657 19.88548,-5.43945 3.84732,-1.30199 7.68939,-2.62399 11.48936,-4.05972 0.40451,-0.16491 0.81809,-0.30911 1.21352,-0.49474 0.91335,-0.42877 4.01407,-2.26637 2.47933,-1.40513 -2.41859,1.35722 -4.78656,2.80588 -7.23528,4.10792 -0.66095,0.35144 1.25273,-0.82037 1.8643,-1.25205 0.71792,-0.50674 1.41549,-1.04171 2.12323,-1.56257 3.79049,-2.83576 7.58336,-5.6599 11.56031,-8.22995 3.92413,-2.39275 7.86615,-4.77086 11.96093,-6.86035 0,0 -8.14484,6.53589 -8.14484,6.53589 v 0 c -4.90669,2.59871 11.84948,-6.84541 5.75974,-3.40025 -4.04439,2.54968 -7.93352,5.30822 -11.73314,8.21205 -5.52724,4.27785 -11.5357,8.067 -18.00495,10.72757 -3.71964,1.33771 -7.47149,2.58452 -11.22668,3.81804 -6.54492,2.15848 -13.16033,4.2169 -19.98443,5.28779 -7.56907,1.08357 -15.14358,2.13716 -22.6932,3.34954 -9.06842,1.49943 -18.07943,3.31008 -27.14519,4.82282 -7.84439,1.26181 -15.69143,2.5048 -23.53512,3.77063 -5.86155,0.90632 -11.72011,1.82275 -17.59497,2.63887 -4.75548,0.80938 -9.52273,1.53936 -14.27388,2.37401 -3.13975,0.4398 -6.2907,0.79672 -9.46729,0.74004 0,0 8.47883,-6.16023 8.47883,-6.16023 z"
       id="path2824"
       style="fill:#000000;fill-opacity:1;fill-rule:nonzero;stroke:none"
       inkscape:connector-curvature="0" />
    <path
       d="m 138.56783,562.53731 c 5.82941,-0.94233 11.72772,-1.4397 17.61441,-1.87586 7.01586,-0.646 14.0436,-0.27367 21.05816,0.12325 11.00179,0.64876 22.00672,1.23217 33.01058,1.84477 9.43491,0.52127 18.86946,1.10009 28.28333,1.92417 7.43036,0.83205 14.83916,1.74748 22.30185,2.23052 12.94202,0.5155 25.76402,1.32441 38.61919,2.94729 12.03509,1.49465 23.58568,5.31273 34.89995,9.53292 7.24209,2.84341 14.1989,6.32179 21.1269,9.84231 3.66453,1.66493 7.10179,3.699 10.32964,6.09512 1.7719,1.38925 3.53683,2.78739 5.33697,4.1399 l -8.72552,5.50955 -10.47416,7.21119 c -1.77081,-1.36799 6.9706,-9.99498 5.20924,-11.37521 -3.19691,-2.32215 -6.61521,-4.26424 -10.15018,-6.02777 -6.72415,-3.62908 -13.44907,-7.27735 -20.58517,-10.05845 -11.20488,-4.28187 -22.70409,-7.90115 -34.64336,-9.4402 -12.88267,-1.65856 -25.83587,-2.4338 -38.82093,-2.71528 -1.65424,-0.0649 -3.31019,-0.0951 -4.9627,-0.19463 -5.85747,-0.35265 -11.64193,-1.51143 -17.48991,-1.97426 -9.32768,-0.86968 -18.67293,-1.51869 -28.0245,-2.07159 -11.08179,-0.68227 -22.17116,-1.25549 -33.26705,-1.65252 -7.00689,-0.33034 -14.02665,-0.60835 -21.02909,0.0115 -6.0096,0.46226 -12.0563,0.96398 -17.94446,2.3058 l 8.32681,-6.33251 z"
       id="path2830"
       style="fill:#000000;fill-opacity:1;fill-rule:nonzero;stroke:none"
       inkscape:connector-curvature="0"
       sodipodi:nodetypes="cccccccccccccccccccccccccc" />
    <path
       d="m 328.21294,480.55671 c 4.06062,-7.16186 8.57626,-14.03291 13.38697,-20.70894 3.68778,-4.97851 8.18043,-9.23118 12.72565,-13.40319 3.3805,-3.09333 6.49988,-6.44365 9.56178,-9.84655 2.88315,-3.39731 5.84595,-6.72116 8.95926,-9.90929 1.8851,-1.84427 3.70905,-3.74934 5.67482,-5.50911 3.52857,-3.28146 7.88303,-5.05319 12.14382,-7.46861 1.18816,-0.37997 2.36552,-1.00891 3.61516,-1.18316 0.42741,-0.0596 1.16175,-3.7e-4 1.59428,0.0229 2.27651,0.47236 3.91195,2.14085 5.5628,3.6525 3.43574,3.45621 6.84974,6.93414 10.04945,10.61123 3.82429,4.11819 6.28702,9.09735 8.55074,14.17701 2.19022,5.43202 4.16372,10.95571 5.80995,16.57742 0.47614,1.72386 0.26221,0.92466 0.64708,2.39618 0,0 -9.1723,4.92882 -9.1723,4.92882 v 0 c -0.274,-1.49604 -0.11579,-0.68415 -0.48523,-2.43357 -1.36774,-5.65744 -3.19184,-11.20875 -5.51408,-16.54829 -2.30615,-4.946 -4.75856,-9.82511 -8.51085,-13.86262 -3.18552,-3.64272 -6.55335,-7.12867 -10.10841,-10.4131 -1.5546,-1.2958 -3.1567,-2.84908 -5.29777,-2.93012 -1.73238,0.11016 -3.34988,0.80199 -4.91573,1.51426 15.231,-8.90026 8.69668,-5.57128 5.73319,-2.9872 -2.06116,1.78298 -4.05161,3.63134 -5.97889,5.55974 -3.15353,3.11273 -6.07951,6.43952 -8.92049,9.83864 -3.10729,3.44231 -6.24772,6.85015 -9.66375,9.99407 -4.5865,4.19343 -9.19915,8.38655 -13.02618,13.31435 -4.7803,6.48043 -9.36772,13.12945 -12.98263,20.34628 0,0 -9.43864,4.27034 -9.43864,4.27034 z"
       id="path2832"
       style="fill:#000000;fill-opacity:1;fill-rule:nonzero;stroke:none"
       inkscape:connector-curvature="0" />
    <path
       d="m 279.80577,486.39252 c 2.81829,-5.08741 6.23129,-9.81256 9.65997,-14.49877 6.18841,-8.11844 12.52218,-16.12293 18.66002,-24.28158 4.48731,-5.83532 8.62307,-11.92478 12.79002,-17.98893 2.89882,-4.05237 5.81894,-8.08509 8.49054,-12.29196 1.13418,-2.06809 2.41581,-4.00586 4.11229,-5.64848 3.393,-2.8994 7.62033,-4.77531 11.44771,-6.91508 0.41584,-0.23249 0.48466,-0.14272 0.908,-0.0547 0.74654,0.29923 1.31767,0.8757 1.9417,1.37634 1.72825,2.12256 3.25755,4.40103 4.79461,6.66487 2.11803,3.04309 3.88405,6.29661 5.68597,9.52966 1.96594,3.65612 3.77633,7.40088 5.43646,11.20582 0.64545,1.79177 1.667,3.39321 2.54493,5.06632 0.61112,1.1252 1.23925,2.25251 1.97929,3.29823 0,0 -9.04317,5.31574 -9.04317,5.31574 v 0 c -0.73897,-1.10484 -1.40724,-2.26234 -2.07065,-3.41417 -0.81614,-1.73632 -1.76125,-3.41275 -2.37749,-5.24071 -1.52702,-3.82475 -3.33119,-7.53403 -5.38033,-11.10703 -1.7733,-3.21448 -3.50407,-6.45033 -5.61922,-9.46025 -1.48692,-2.18122 -3.00747,-4.3664 -4.85985,-6.25681 -0.40916,-0.32049 -0.94494,-0.92655 -1.51308,-0.71401 -2.87583,1.79596 -7.84265,4.52735 7.84121,-4.5785 0.19416,-0.11272 -0.39019,0.22235 -0.58169,0.33954 -0.71001,0.43455 -0.78351,0.50265 -1.49462,0.99867 -1.78609,1.55966 -3.25469,3.34676 -4.35849,5.46635 -2.7628,4.23875 -5.71179,8.3384 -8.70208,12.41993 -4.23622,6.11948 -8.4628,12.25089 -13.02166,18.13744 -6.17665,8.08966 -12.5213,16.05168 -18.58176,24.22872 -3.29171,4.51819 -6.60164,9.06657 -9.12146,14.07483 0,0 -9.56717,4.32849 -9.56717,4.32849 z"
       id="path2834"
       style="fill:#000000;fill-opacity:1;fill-rule:nonzero;stroke:none"
       inkscape:connector-curvature="0" />
    <path
       d="m 371.14881,599.3417 c -5.38614,7.70101 -3.06663,14.85683 -7.69234,23.02809 -4.32037,7.86744 -9.48156,15.20607 -14.25577,22.79133 -3.07841,5.39526 -5.70427,11.03675 -8.42426,16.61884 -1.17552,2.64174 -2.22464,5.31534 -3.62351,7.85302 -3.19009,5.59516 -6.39511,11.18226 -9.60259,16.7681 -2.18784,3.62269 -4.20589,7.34461 -5.92926,11.2105 -1.41575,3.48265 -3.18593,6.88958 -4.78677,10.32775 -3.33885,6.76483 -6.31731,13.69855 -9.53314,20.52007 -1.44364,2.98816 -3.25601,5.78965 -5.37442,8.34132 -2.72048,3.50871 -5.17026,7.25771 -7.8853,10.80761 -3.45452,4.69509 -7.24129,9.1274 -10.8191,13.72604 -1.46245,1.67354 -2.94282,3.32044 -3.96653,5.30467 -4.29307,5.70778 -9.49737,10.63947 -14.44214,15.76827 -3.74108,3.78185 -6.63775,8.2066 -9.60801,12.5755 -1.18355,1.48804 -2.07982,2.99014 -3.41897,4.36756 -1.9488,1.35238 -3.817,2.80771 -5.45263,4.53162 -1.07573,1.12435 -0.57919,1.30731 -1.62748,-0.85966 -0.28153,-0.58197 -0.57068,-1.16021 -0.85603,-1.74032 l -23.3042,18.7988 v 0 c -1.23151,-1.25658 -3.46787,-2.95372 -1.71302,-4.59335 1.58731,-1.95185 3.26946,-3.70581 5.25054,-5.22131 0.52753,-0.22283 2.0168,-0.77112 2.36787,-1.29831 0.49475,-0.74294 0.46882,-1.69478 1.45034,-2.21618 3.4938,-4.25267 6.08034,-9.21807 10.0375,-13.13552 4.68915,-4.98607 9.70475,-9.68317 13.94972,-15.04983 1.58483,-1.67803 2.06062,-4.30726 4.08696,-5.67189 3.93194,-4.31846 7.38526,-9.11336 11.07082,-13.64848 2.60205,-3.56126 5.60279,-6.86602 7.38324,-10.94786 2.38864,-2.25278 4.42381,-4.87296 6.04648,-7.72786 3.63064,-6.60146 6.24839,-13.73104 9.68219,-20.43708 1.09771,-2.50132 2.35898,-5.02308 3.35037,-7.5663 0.14791,-0.37943 0.10927,-0.82364 0.29681,-1.18513 0.0998,-0.19243 0.42347,-0.19614 0.5204,-0.39004 0.14863,-0.29731 0.11074,-0.65548 0.16611,-0.98322 1.85688,-4.02656 3.94864,-7.95634 6.31018,-11.70905 3.21963,-5.46355 6.38423,-11.01216 9.20375,-16.68032 1.65173,-2.35982 2.77871,-4.94353 3.74796,-7.64925 3.02578,-5.60654 5.83456,-11.31677 8.6739,-17.0176 4.82968,-7.60567 10.01282,-14.96759 14.53941,-22.76791 4.58324,-8.02664 10.03551,-14.30829 14.98124,-22.12188 z"
       id="path2840"
       style="fill:#000000;fill-opacity:1;fill-rule:nonzero;stroke:none"
       inkscape:connector-curvature="0"
       sodipodi:nodetypes="ccccccccccccccccccccccccccccccccccccccccccc" />
    <path
       d="m 477.77423,758.8208 c -3.53906,0.56881 -6.90925,1.72175 -10.24709,2.99157 -5.52881,2.16968 -15.75548,8.52984 7.23129,-4.65273 -1.73536,1.00721 -3.12649,2.43841 -4.53157,3.84818 -1.20414,0.95282 -2.08615,2.13215 -2.9403,3.37894 -1.0646,1.11821 -1.0114,2.70767 -1.09111,4.15501 -0.10918,1.69717 0.17396,3.41218 0.6939,5.02677 0.5483,1.66804 1.50871,3.1533 2.63033,4.48901 1.31894,1.58143 2.99779,2.70207 4.8254,3.60989 3.40751,1.57065 7.05852,2.41142 10.69664,3.2497 3.72317,0.65022 7.4472,1.2895 11.21055,1.66327 4.72521,0.37804 9.46951,0.37707 14.20652,0.40686 4.61388,0.11044 9.203,-0.53415 13.72098,-1.41081 5.06211,-0.66823 9.88889,-1.96465 14.5873,-3.94939 8.33989,-4.47376 -4.43732,2.75757 -6.76144,3.94326 -1.02964,0.52529 1.92531,-1.28176 2.85084,-1.97421 2.64186,-1.97656 4.9659,-4.21706 7.23775,-6.59605 3.4556,-3.7519 5.81581,-8.18957 7.19784,-13.06779 0.91483,-3.59963 0.39077,-7.20417 -0.90993,-10.62269 -1.18968,-3.29345 -2.91978,-6.292 -4.92197,-9.14273 -2.07002,-2.17534 -4.92647,-3.43861 -7.68959,-4.50525 -2.39537,-1.10572 -4.98071,-1.54246 -7.524,-2.12995 -3.64899,-0.70837 -7.38108,-0.80598 -11.08588,-0.91906 -6.37748,-0.25757 -12.74714,0.21172 -19.09628,0.76569 -6.40232,0.79564 -12.82246,1.44398 -19.18328,2.53479 -5.4196,0.87772 -10.78803,2.03227 -16.18618,3.02643 -3.90481,0.45637 -7.69021,1.46582 -11.51646,2.31252 -1.7823,0.0236 -3.23537,0.82997 -4.82133,1.49742 22.84602,-11.93054 13.6231,-8.81385 9.80117,-5.15082 -0.82787,0.75332 -1.51116,1.61289 -2.17029,2.51309 -0.89095,1.31952 -1.79996,2.62711 -2.69489,3.94515 -1.04153,1.77415 -1.57526,3.76218 -2.09266,5.73549 -0.32126,1.9714 -0.88013,3.87117 -1.47018,5.77293 -0.30377,1.4547 0.12994,3.02157 0.44247,4.44847 0.47807,1.82668 0.59281,3.72222 0.97103,5.56516 0.54311,1.64059 1.09072,3.28248 1.74852,4.8816 0.7489,1.83795 1.61796,3.56279 2.76432,5.17544 1.14549,1.32243 2.56277,2.32226 3.84503,3.51278 1.61138,1.26519 3.24469,2.49775 4.82022,3.80807 1.1424,0.9163 2.16595,1.96491 3.31515,2.86876 1.22669,0.66224 2.26906,1.59822 3.42056,2.3699 1.34873,0.9088 2.74444,1.74835 4.15319,2.56816 2.49113,1.4406 4.94629,2.92386 7.60563,4.03676 2.32875,0.74149 4.73395,1.18467 7.09921,1.80729 2.86893,0.76436 5.82153,1.05985 8.77613,1.22821 3.3644,0.12183 6.73221,0.13934 10.09855,0.13938 3.95125,0.002 7.90243,-0.0211 11.85366,-0.0253 4.08977,0.0938 8.16164,-0.0399 12.24195,-0.28743 4.91615,-0.50975 9.81841,-1.12474 14.74651,-1.51299 3.19708,-0.026 6.33817,-0.60855 9.51506,-0.88838 3.09732,-10e-4 6.1193,-0.37022 9.16136,-0.89049 2.79851,-0.72502 5.48147,-1.69214 8.03238,-3.05915 0.59122,-0.3297 1.18304,-0.65832 1.77366,-0.98908 0.62077,-0.34765 2.47787,-1.39985 1.86052,-1.04615 -3.51456,2.01364 -7.00764,4.06567 -10.55222,6.02598 -0.72997,0.40371 1.41124,-0.89016 2.10454,-1.35402 0.7314,-0.48936 1.45936,-0.98465 2.16888,-1.50521 0.65548,-0.48091 1.28307,-0.99872 1.92461,-1.49808 3.59772,-2.906 7.11472,-5.91159 10.47559,-9.08877 4.30885,-4.0315 7.6446,-8.85639 10.59728,-13.92552 2.62247,-4.55236 4.39303,-9.51286 6.07431,-14.46951 1.85574,-5.27366 3.09593,-10.73281 4.43397,-16.15382 1.19592,-4.75737 2.52127,-9.48591 4.08892,-14.13475 2.00455,-5.06604 3.09444,-10.40678 3.88532,-15.77708 0.95929,-6.63338 0.60426,-13.33202 0.38535,-20.00023 -0.20546,-7.24598 -0.16921,-14.4901 -0.73599,-21.71978 -0.76793,-8.22793 -3.8368,-15.9737 -6.36187,-23.77475 -1.74058,-5.22536 -3.58202,-10.41552 -5.70298,-15.49935 -1.11101,-2.54616 -2.67132,-4.85124 -4.06124,-7.24714 -0.31814,-0.70766 -0.5829,-1.54239 -1.40596,-1.62004 -0.0745,-0.004 -0.19667,-0.0806 -0.22343,-0.0111 -0.0543,0.14115 0.0715,0.30012 0.0545,0.45038 -0.0101,0.089 -0.088,0.15599 -0.13195,0.23399 4.13039,-2.44991 8.22327,-4.96418 12.39117,-7.34972 0.22839,-0.13072 -0.2027,0.48915 -0.25562,0.74693 -0.18933,1.34779 0.2421,2.66188 0.53424,3.96413 0.10119,1.07643 0.55352,1.98555 0.98295,2.95212 0.46752,1.42711 0.45155,2.96964 0.51459,4.45806 0.0417,0.98602 0.0566,1.97305 0.0404,2.95978 -0.01,1.58912 0.42358,3.14384 0.63703,4.71557 0.28067,2.44837 -0.18708,4.89744 -0.41765,7.33197 -0.0829,2.42283 -0.5475,4.79891 -1.1991,7.12599 -0.96629,3.6433 -2.09242,7.24345 -2.92202,10.92111 -0.79737,4.36271 -2.07557,8.60978 -3.21677,12.88867 -0.348,1.92225 -1.16388,3.67519 -1.95273,5.44235 -1.56011,3.62688 -3.41661,7.12059 -5.44628,10.50463 -1.69351,2.90806 -3.57239,5.69961 -5.4513,8.48922 -0.68265,0.82855 -1.27803,1.76641 -2.04123,2.50439 -1.57703,1.94132 -3.30951,3.78806 -4.94689,5.69145 -2.01396,2.45988 -4.20675,4.75899 -6.35177,7.10222 -2.21831,2.37559 -4.76232,4.39893 -7.16896,6.57193 -1.10772,1.08761 -2.28286,2.09746 -3.53662,3.01161 0,0 -13.89315,5.40387 -13.89315,5.40387 v 0 c 1.39694,-0.77963 2.71157,-1.71697 3.83653,-2.85992 2.36304,-2.16625 4.85454,-4.1716 7.13978,-6.41741 2.18534,-2.36902 4.46724,-4.63897 6.53027,-7.11796 1.15655,-1.36961 2.3,-2.74485 3.47898,-4.09431 0.30578,-0.34999 0.51698,-0.77828 0.83811,-1.11424 0.1059,-0.11078 0.25772,-0.16591 0.38657,-0.24887 0.94923,-1.84096 -0.41653,0.62648 0.54525,-0.64411 0.10017,-0.13234 0.0916,-0.32523 0.18559,-0.46203 0.3718,-0.54133 1.12049,-0.8537 1.41895,-1.46446 2.13703,-2.63452 3.88502,-5.60209 5.70307,-8.46011 2.04222,-3.25658 3.85279,-6.66319 5.35016,-10.20148 0.66954,-1.79408 1.64199,-3.45739 2.08628,-5.32379 1.28442,-4.24216 2.66966,-8.46946 3.39098,-12.85493 0.70564,-3.68568 1.83558,-7.25249 2.69389,-10.90303 0.58021,-2.27068 1.32604,-4.53301 1.35473,-6.90365 0.15402,-2.34051 0.62855,-4.68026 0.48575,-7.02012 -0.20061,-1.63307 -0.63049,-3.22801 -0.80137,-4.85107 -0.0104,-0.97969 0.0167,-1.95888 0.0138,-2.93865 -0.013,-1.31197 -0.002,-2.65661 -0.294,-3.94001 -0.43304,-1.06466 -1.00961,-2.05323 -1.0631,-3.23414 -0.29462,-1.44782 -0.81417,-2.86256 -0.80028,-4.34926 0.15765,-5.85513 8.92609,-11.945 13.9517,-8.99111 0.91369,0.58577 1.50921,1.49379 1.86472,2.51347 1.26018,2.52957 2.81494,4.90382 3.90021,7.52019 2.05517,5.16804 3.86504,10.42142 5.52435,15.72993 2.46273,7.92766 5.40729,15.7921 6.51198,24.05623 0.65518,7.23947 0.52875,14.50112 0.81517,21.76083 0.23011,6.73073 0.62632,13.49115 -0.23643,20.19623 -0.67221,5.4245 -1.63705,10.85215 -3.62396,15.96922 -1.62916,4.61213 -2.95606,9.32895 -4.21559,14.05277 -1.36326,5.4292 -2.59043,10.90284 -4.32005,16.22837 -1.67942,5.05024 -3.48362,10.10127 -6.0629,14.77225 -2.86828,5.16402 -6.13187,10.08266 -10.34101,14.27077 -3.32351,3.23939 -6.81134,6.29704 -10.42692,9.20837 -7.33425,6.05993 -15.86128,10.42775 -24.21224,14.92877 -2.6927,1.23822 -5.48216,2.27562 -8.41199,2.79335 -3.03772,0.46148 -6.0938,0.52093 -9.15297,0.77058 -3.15959,0.34539 -6.30889,0.76758 -9.49226,0.83057 -4.8965,0.35894 -9.76962,0.94566 -14.655,1.42571 -4.13154,0.28687 -8.26012,0.34238 -12.40138,0.28797 -3.93983,0.002 -7.87964,-0.009 -11.81947,-10e-4 -3.42424,-0.002 -6.85367,0.0825 -10.27303,-0.14324 -2.99856,-0.26091 -5.98042,-0.67589 -8.89573,-1.44664 -2.44908,-0.55415 -4.94321,-1.02957 -7.26721,-2.00544 -2.6547,-1.22721 -5.12033,-2.77528 -7.69564,-4.15499 -1.48003,-0.8173 -2.96928,-1.63048 -4.33644,-2.6308 -1.13463,-0.84865 -2.27983,-1.68198 -3.455,-2.47368 -1.11425,-0.95586 -2.2198,-1.91865 -3.32206,-2.88819 -1.55344,-1.34191 -3.20253,-2.56514 -4.77113,-3.88894 -1.40498,-1.2192 -2.98373,-2.23357 -4.09401,-3.75696 -1.18088,-1.71206 -2.05234,-3.55917 -2.83771,-5.48547 -0.73407,-1.65168 -1.40134,-3.33535 -1.95512,-5.05407 -0.4884,-1.82797 -0.38568,-3.77756 -0.92451,-5.60682 -0.40452,-1.6865 -0.82495,-3.37643 -0.86549,-5.12152 0.61743,-1.89616 1.38732,-3.73618 1.64606,-5.73261 0.4408,-2.08186 0.92674,-4.13821 1.79602,-6.08446 0.73726,-1.44817 1.86082,-2.65114 2.62251,-4.07348 0.67739,-0.93632 1.23969,-1.87334 2.04172,-2.70253 4.35118,-4.62374 9.01244,-6.68632 15.62133,-9.76463 1.59117,-0.68646 3.24736,-0.97017 4.95014,-1.24988 3.73024,-0.82349 7.48637,-1.4722 11.2604,-2.06288 5.404,-1.0524 10.79491,-2.18361 16.23887,-3.01791 6.34352,-0.96729 12.72391,-1.65162 19.10319,-2.33564 6.4644,-0.50946 12.94681,-1.06604 19.43733,-0.81028 3.80619,0.12378 7.63575,0.28111 11.37864,1.03755 2.62184,0.52731 5.16262,1.32678 7.6256,2.37797 2.958,1.29226 6.0619,2.67875 8.15861,5.21845 1.99067,2.98389 3.76632,6.08921 5.02615,9.46347 1.48202,3.64314 2.08651,7.56095 1.31682,11.46194 -1.28755,5.10305 -3.66444,9.80574 -7.11925,13.8045 -7.64395,8.52577 -17.47561,14.43875 -27.94437,19.10756 -4.82256,1.8617 -9.76325,3.10365 -14.88812,3.80834 -4.58031,0.78051 -9.20086,1.35135 -13.85938,1.17484 -4.79097,-0.0343 -9.59146,-0.0708 -14.36827,-0.4702 -3.79793,-0.43555 -7.58009,-1.04274 -11.32428,-1.81214 -3.72346,-0.92114 -7.46847,-1.82171 -10.94218,-3.49997 -2.00098,-1.03367 -3.83854,-2.26094 -5.23592,-4.06379 -1.21432,-1.47699 -2.28305,-3.1191 -2.93655,-4.92499 -0.64495,-1.74703 -0.91389,-3.69555 -0.90886,-5.54838 0.0525,-1.64728 -0.0799,-3.42311 0.61807,-4.95214 1.04904,-1.17256 1.60618,-2.71146 2.97518,-3.62345 1.46293,-1.33588 2.66326,-2.98534 4.34543,-4.03904 6.1213,-3.56503 11.57051,-7.52555 18.15844,-9.8039 3.45476,-1.2241 6.95887,-2.28342 10.58739,-2.86161 0,0 -11.88266,8.89356 -11.88266,8.89356 z"
       id="path2846"
       style="fill:#000000;fill-opacity:1;fill-rule:nonzero;stroke:none"
       inkscape:connector-curvature="0" />
    <path
       d="m 431.03487,459.21403 c -2.00186,1.70882 -3.90521,3.5058 -5.69695,5.43386 -1.84638,1.85981 -3.26877,4.06696 -4.86825,6.12866 -2.92188,3.02424 -5.38766,6.4197 -7.94701,9.74053 -1.29801,1.40008 -2.41428,2.82504 -3.29087,4.51492 -1.19761,2.725 -1.83754,5.63723 -2.78402,8.44797 -0.95972,3.11144 -2.23978,6.10653 -3.45152,9.12426 -0.84142,1.98226 -1.25417,4.08564 -1.75815,6.1657 -0.79087,2.54608 -0.73763,5.17468 -0.64327,7.80607 0.31658,4.79971 1.38117,9.49206 2.79881,14.07376 1.00347,3.53753 3.06318,6.45758 5.21477,9.3671 1.58798,2.19848 3.58868,4.05638 5.1895,6.24402 1.10497,1.82115 2.55569,3.27817 4.21674,4.5919 1.85947,1.4153 3.56505,3.03588 5.53739,4.29982 0.22537,0.12892 0.45075,0.25785 0.67613,0.38678 0,0 -12.47836,8.05082 -12.47836,8.05082 v 0 c -0.23056,-0.15273 -0.46113,-0.30546 -0.69169,-0.4582 -1.91831,-1.38768 -3.6454,-3.00882 -5.527,-4.44302 -1.74409,-1.42617 -3.33817,-2.92246 -4.48721,-4.88462 -1.57908,-2.18648 -3.46731,-4.13062 -5.03602,-6.32561 -2.23776,-3.05886 -4.45157,-6.08292 -5.43399,-9.82081 -1.35934,-4.70951 -2.44882,-9.48912 -2.95745,-14.37429 -0.21732,-2.71635 -0.50876,-5.46086 0.24643,-8.12778 0.60784,-2.12524 0.85897,-4.32943 1.79237,-6.36146 1.12491,-3.03775 2.59536,-5.95181 3.46967,-9.08241 1.02189,-2.80151 1.68153,-5.70723 2.64636,-8.52737 0.74879,-1.9144 1.65057,-3.53618 3.23851,-4.90639 2.72671,-3.18619 4.94734,-6.80507 7.98396,-9.73278 1.6221,-2.02355 2.93709,-4.26884 4.69047,-6.18309 1.78306,-1.91988 3.54024,-3.88071 5.63818,-5.46845 0,0 13.71247,-5.67989 13.71247,-5.67989 z"
       id="path2848"
       style="fill:#000000;fill-opacity:1;fill-rule:nonzero;stroke:none"
       inkscape:connector-curvature="0" />
    <path
       d="m 402.60778,548.186 c 3.01231,0.56739 6.10977,0.49008 9.11423,1.06311 1.97678,0.22375 3.67634,1.17328 5.44646,1.98565 2.51005,1.16444 4.83698,2.66666 7.0597,4.30462 2.10908,1.86853 4.32977,3.50227 6.85595,4.75278 2.57922,1.45561 5.21426,2.80875 7.79655,4.25811 3.381,1.33076 6.2778,3.33743 9.0285,5.66619 3.74448,3.18344 7.76575,6.01255 11.60046,9.08204 4.32708,3.34363 7.76111,7.54879 10.78563,12.06148 3.15877,4.90568 5.53703,10.23354 7.75617,15.61163 1.55062,3.77606 1.97655,7.83939 2.70689,11.81668 0.73126,3.35327 1.21274,6.74694 1.42406,10.1706 0.26233,4.86598 -0.10632,9.72957 -0.38659,14.58542 -0.39645,4.21372 -0.81486,8.42943 -1.50473,12.60639 -0.56737,4.01344 -1.55704,7.93478 -2.65852,11.82894 -1.29007,4.73359 -2.16466,9.55252 -2.92568,14.39363 -0.90572,5.03388 -1.87547,10.05823 -2.59554,15.1228 -0.86303,6.1768 -2.80333,12.13834 -4.48039,18.12893 -1.4208,5.15271 -2.45242,10.402 -3.74422,15.58624 -0.62831,2.94164 -1.66991,5.73839 -2.83037,8.50417 0,0 -13.32666,6.13285 -13.32666,6.13285 v 0 c 1.15279,-2.71456 2.21345,-5.45967 2.91616,-8.32933 1.54609,-5.19684 2.61606,-10.52705 4.07008,-15.74972 1.63776,-5.90041 3.38641,-11.80382 4.36031,-17.85715 0.69353,-5.08016 1.62994,-10.12146 2.61103,-15.15336 0.73551,-4.88983 1.48982,-9.76191 2.82618,-14.53511 1.04408,-3.85142 2.01182,-7.67637 2.5921,-11.63178 0.72775,-4.16448 1.276,-8.35196 1.7559,-12.55383 0.29355,-4.77292 0.58827,-9.54602 0.25812,-14.32694 -0.18581,-3.37634 -0.55418,-6.73784 -1.25817,-10.04985 -0.73162,-3.88559 -1.17649,-7.85327 -2.5198,-11.59439 -2.04896,-5.33447 -4.33387,-10.6064 -7.48613,-15.39591 -3.03418,-4.32635 -6.41591,-8.41433 -10.63977,-11.64445 -3.87503,-3.05537 -7.87198,-5.95247 -11.72508,-9.03638 -2.73994,-2.20562 -5.64357,-4.0454 -8.89517,-5.42896 -2.60917,-1.41938 -5.27988,-2.72247 -7.87078,-4.17637 -2.49673,-1.4013 -4.74403,-3.1028 -6.92216,-4.95752 -2.19678,-1.56376 -4.50704,-2.95802 -6.99827,-4.00747 -1.65378,-0.78026 -3.33506,-1.45517 -5.16503,-1.69507 -2.99161,-0.42688 -6.02475,-0.66308 -9.04036,-0.81367 0,0 12.00894,-8.725 12.00894,-8.725 z"
       id="path2850"
       style="fill:#000000;fill-opacity:1;fill-rule:nonzero;stroke:none"
       inkscape:connector-curvature="0" />
    <path
       d="m 241.27436,817.34282 c 2.15407,0.69366 4.372,1.18202 6.61694,1.46107 1.21175,0.14903 2.43375,0.13671 3.65204,0.13165 1.83965,-0.0143 3.679,0.0267 5.51862,0.0347 2.89213,0.22072 5.64068,-0.31708 8.38232,-1.16641 4.31477,-1.9904 12.73869,-6.07982 -6.2737,3.91821 -1.04932,0.5518 1.97965,-1.30633 2.94116,-1.99992 2.64962,-1.91134 4.18177,-3.2106 6.72919,-5.27198 6.31251,-4.96805 11.73188,-10.90316 17.50209,-16.4559 3.43334,-3.33795 6.9973,-6.53905 10.62709,-9.66102 0,0 13.45099,-5.44511 13.45099,-5.44511 v 0 c -3.70393,3.11592 -7.33838,6.32309 -10.83885,9.66637 -5.90818,5.47856 -11.22949,11.58584 -17.57501,16.59542 -8.54518,7.0634 -17.61392,13.94406 -28.21456,17.62405 -2.83999,0.74365 -5.70863,0.99579 -8.64606,0.85559 -1.88852,0.0128 -3.77663,0.0652 -5.66522,0.0526 -1.24691,-0.0276 -2.49314,-0.11718 -3.72133,-0.34494 -2.27025,-0.41674 -4.50009,-1.00974 -6.72763,-1.61044 0,0 12.24192,-8.38393 12.24192,-8.38393 z"
       id="path2852"
       style="fill:#000000;fill-opacity:1;fill-rule:nonzero;stroke:none"
       inkscape:connector-curvature="0" />
    <path
       d="m 305.03961,807.60162 c 2.22105,1.67512 4.43998,3.35973 6.83687,4.77745 1.42245,1.12969 2.99684,1.92905 4.76638,2.31177 0.93113,0.0817 2.1221,0.35656 2.93049,-0.17463 1.97068,-0.98314 3.90319,-2.08342 5.90148,-3.03904 3.64239,-1.88433 7.67492,-2.76477 11.51633,-4.13085 6.1165,-2.36227 11.90302,-5.47427 17.82315,-8.27539 5.98687,-2.88157 11.97236,-5.76532 17.82622,-8.911 -3.2885,1.88122 -6.55375,3.80369 -9.86551,5.64367 -0.86759,0.48202 1.69273,-1.03692 2.53081,-1.56859 0.86986,-0.55184 1.7407,-1.10279 2.59273,-1.68177 3.54842,-2.41125 6.79438,-5.16972 10.0806,-7.92 7.53319,-6.51162 14.94126,-13.18145 21.65278,-20.54552 2.02355,-2.4161 3.9986,-4.88764 5.80672,-7.47126 0,0 13.57763,-5.90697 13.57763,-5.90697 v 0 c -1.90414,2.74061 -4.10809,5.25877 -6.20548,7.85095 -6.80487,7.40493 -14.2533,14.15371 -21.79726,20.79714 -1.42851,1.23294 -5.31606,4.61977 -6.94127,5.91196 -6.95327,5.52851 -15.237,9.27955 -22.69222,13.943 -5.82815,3.0577 -11.75999,5.90648 -17.70343,8.73203 -6.02431,2.88398 -11.92027,6.09689 -18.21278,8.37244 -3.8734,1.27707 -7.84253,2.35298 -11.44373,4.32105 -2.0403,1.05932 -4.04898,2.36691 -6.29911,2.91132 -1.12982,-0.0515 -2.27545,-0.0521 -3.35245,-0.44916 -1.7838,-0.61988 -3.3817,-1.58982 -4.89159,-2.71965 -2.36597,-1.5165 -4.57962,-3.24538 -6.93431,-4.77729 0,0 12.49695,-8.00166 12.49695,-8.00166 z"
       id="path2854"
       style="fill:#000000;fill-opacity:1;fill-rule:nonzero;stroke:none"
       inkscape:connector-curvature="0" />
    <path
       d="m 377.39948,788.61171 c 2.03548,2.48625 4.55324,4.4227 7.08777,6.35607 2.99485,2.28239 6.13277,4.34496 9.3221,6.34041 1.88649,1.19974 3.9539,2.05387 5.90411,3.14021 3.16778,0.99996 6.44031,1.64308 9.71262,2.19915 3.1853,0.50216 6.40664,0.65876 9.62569,0.72746 6.25007,-0.75619 12.27716,-2.8933 18.2577,-4.78727 6.75673,-2.21377 13.63905,-4.00035 20.32231,-6.43714 1.05412,-0.50039 2.10824,-1.00078 3.16237,-1.50116 -2.89801,1.63794 -5.72487,3.40869 -8.69401,4.91383 -1.30571,0.66191 2.47793,-1.56029 3.69203,-2.37819 3.4036,-2.29287 6.61741,-4.83018 9.84488,-7.35951 0,0 13.24433,-5.30106 13.24433,-5.30106 v 0 c -10.09733,7.94304 -20.65181,15.52255 -32.60945,20.48911 -6.66416,2.3209 -13.50151,4.07214 -20.20366,6.27718 -6.18532,1.93558 -12.46333,4.30362 -18.97114,4.71616 -3.23498,-0.12095 -6.46212,-0.41901 -9.65385,-0.97294 -3.41534,-0.63964 -6.93388,-1.16675 -10.15904,-2.49262 -1.94351,-1.09982 -4.0267,-1.95334 -5.83889,-3.27868 -3.18397,-2.05634 -6.2772,-4.24163 -9.35092,-6.45902 -2.66224,-1.97485 -5.15398,-4.11778 -7.40572,-6.56046 0,0 12.71077,-7.63153 12.71077,-7.63153 z"
       id="path2856"
       style="fill:#000000;fill-opacity:1;fill-rule:nonzero;stroke:none"
       inkscape:connector-curvature="0" />
    <path
       d="m 310.17018,484.26294 c -1.20196,2.2493 -2.30266,4.57343 -3.09178,6.99858 -0.17407,1.12078 0.72708,1.79494 1.71896,2.09351 0.50198,0.40341 1.3712,0.0916 1.88989,0.29681 0.41564,0.16444 0.74913,0.49056 1.15536,0.67654 0.7938,0.47656 1.55929,0.58739 2.4541,0.64653 0.71832,-0.0185 1.43911,-0.0382 2.1595,-0.046 0.70558,-0.0177 1.41114,-0.009 2.11687,-0.0192 6.78878,-0.12904 0.66011,-0.0466 -16.98316,9.52305 -0.11591,0.0628 0.17189,-0.20228 0.22812,-0.32044 0.22078,-0.46402 0.2084,-0.98853 0.22428,-1.48713 -0.0369,-1.01917 0.3637,-1.94423 0.76898,-2.85573 0.67194,1.18542 -0.23614,-0.76999 -0.45356,-0.92775 -1.19616,-0.82619 -1.75517,-2.22157 -2.64458,-3.3329 -0.60297,-0.78483 -1.27688,-1.52662 -1.63994,-2.44615 -0.032,-0.10321 -0.0639,-0.20643 -0.096,-0.30965 0,0 17.90621,-9.47747 17.90621,-9.47747 v 0 c 0.002,0.0532 0.004,0.10625 0.005,0.15937 0.0501,0.64779 0.893,1.29475 1.19717,1.87718 0.85859,1.14453 1.55229,2.37014 2.68717,3.2759 0.66891,0.94205 1.11844,2.0446 1.62914,3.08096 -0.50887,0.57848 -0.83944,1.27139 -1.2975,1.88504 0.13009,8.00247 -3.7643,13.4415 -17.9593,13.14557 -0.69946,-0.007 -1.39859,0.01 -2.09796,-0.003 -0.79324,-0.009 -1.59338,-0.007 -2.36474,-0.21765 -0.95383,-0.24285 -1.8143,-0.69019 -2.70848,-1.09011 -0.98566,-0.41774 -2.16808,-0.4078 -3.0923,-1.08351 -1.50349,-0.99135 -2.81929,-2.35161 -2.9173,-4.22777 0.0566,-2.68707 1.927,-5.13108 2.83804,-7.61184 0,0 18.3677,-8.20284 18.3677,-8.20284 z"
       id="path2886"
       style="fill:#000000;fill-opacity:1;fill-rule:nonzero;stroke:none;stroke-width:0.95371628"
       inkscape:connector-curvature="0" />
    <path
       d="m 161.82689,552.58532 c 1.71591,-0.91657 3.49549,-1.67857 5.25237,-2.49761 1.49775,-0.69086 3.00869,-1.34103 4.53269,-1.96615 1.64844,-0.88125 3.43024,-1.40924 5.18252,-2.00185 2.47067,-0.60176 4.859,-1.49761 7.29887,-2.21416 1.78333,-0.49355 3.57143,-0.98319 5.33165,-1.56528 1.16604,-0.73362 3.08818,-0.39905 4.10432,-1.33294 -1.83083,1.58798 -3.66163,3.17593 -5.49246,4.76391 0.19587,0.0972 0.66543,0.58639 0.39494,0.70654 -0.21044,0.0936 -0.50337,-0.0375 -0.68611,-0.086 -0.80962,-0.14972 -1.55634,-0.48114 -2.33003,-0.75972 -0.93941,-0.56115 -1.9423,-0.96288 -2.95567,-1.34498 -2.36466,-0.76365 -4.76872,-1.3481 -7.20919,-1.76134 -4.27396,-0.60811 -8.49364,-1.46789 -12.69508,-2.49305 -5.29185,-1.36628 -10.5458,-2.89888 -15.7774,-4.5029 -5.81067,-1.95455 -11.751,-3.2764 -17.79459,-4.0702 -4.11462,-0.46801 -8.25043,-0.65296 -12.38595,-0.7302 0,0 5.14038,-5.40097 5.14038,-5.40097 v 0 c 4.08898,0.21602 8.17597,0.50599 12.24721,0.96965 2.79475,0.36689 3.72147,0.43748 6.45853,0.99362 3.87644,0.78766 7.66066,1.98712 11.45608,3.11526 5.23793,1.57524 10.49533,3.08339 15.78962,4.43302 4.22683,1.00398 8.47783,1.75763 12.77289,2.3478 2.49094,0.43461 4.95717,1.00461 7.3758,1.77662 1.02938,0.36467 2.02251,0.80039 2.99588,1.30622 0.72561,0.27061 1.45672,0.53593 2.22535,0.63075 0.20025,-0.0132 0.40003,-0.0717 0.5998,-0.0523 2.57584,0.2509 0.61942,16.6331 -5.1256,5.97561 -1.38778,0.39853 -2.81944,0.63286 -4.16635,1.18743 -1.75384,0.53521 -3.52194,1.01913 -5.29003,1.4983 -2.44074,0.73412 -4.8517,1.57503 -7.30544,2.26272 -1.75137,0.59637 -3.49234,1.22474 -5.16221,2.04871 -1.51683,0.62923 -3.00826,1.31948 -4.51225,1.98169 -1.78311,0.78969 -3.54742,1.62605 -5.26115,2.57454 0,0 4.99061,-5.79265 4.99061,-5.79265 z"
       id="path3501"
       style="fill:#000000;fill-opacity:1;fill-rule:nonzero;stroke:none"
       inkscape:connector-curvature="0" />
    <path
       id="path3783"
       d="m 353.21092,473.47361 c 1.08799,-0.66553 1.89781,-1.70737 2.7917,-2.60516 0.88929,-0.79557 1.80429,-1.56225 2.65733,-2.39694 1.01607,-0.89523 1.91029,-1.91419 2.87892,-2.85871 1.65465,-1.50916 3.1586,-3.1544 4.64433,-4.82521 1.3392,-1.51673 2.78704,-2.93376 4.12835,-4.44663 1.36492,-1.69904 2.83468,-3.33353 4.0438,-5.15022 0.97905,-1.50501 1.52915,-3.18144 2.0993,-4.86559 0.63411,-1.57308 1.05035,-3.16304 1.33994,-4.82748 0.18721,-0.72509 0.46614,-1.40779 0.70144,-2.11449 0.0284,-0.0974 0.0961,-1.02337 0.31332,-0.56036 14.45092,-8.0797 10.95289,-9.45807 10.99582,-3.76017 -0.0434,1.3806 -0.13043,2.76744 0.009,4.14432 0.383,1.40843 0.46572,2.86945 0.67891,4.30627 0.0836,1.30774 0.12988,2.61222 0.23798,3.91791 0.0106,1.77192 0.37675,3.51993 0.66052,5.26888 0.33437,1.42984 0.82928,2.81376 0.94873,4.28448 0.0559,1.39332 0.61506,2.68606 0.7977,4.05028 0.10154,1.20479 0.43957,2.36929 0.6269,3.55808 0.1431,1.08118 0.2106,2.16641 0.37937,3.2447 0.0536,0.85223 0.0187,1.70524 -0.0141,2.55693 -0.0686,0.53084 0.23492,1.12543 -0.33235,-0.0427 0.17996,-0.12758 0.0775,-0.0892 0.31108,-0.10459 0,0 -10.27205,7.38631 -10.27205,7.38631 v 0 c -0.304,-0.0497 -0.1238,-0.008 -0.5313,-0.15906 -0.54966,-0.77417 -0.5588,-0.66805 -0.44893,-1.4281 0.0734,-0.80542 0.17752,-1.60722 0.179,-2.4182 -0.0109,-1.06639 0.043,0.31805 -0.18434,-1.03993 -0.11709,-0.69929 0.0589,-1.45893 -0.12153,-2.15754 -0.18353,-1.21089 -0.52928,-2.40232 -0.63817,-3.60956 -0.12254,-1.39595 -0.61788,-2.71491 -0.83105,-4.10219 -0.0635,-1.46346 -0.45538,-2.79531 -0.76734,-4.22163 -0.34136,-1.76899 -0.67817,-3.56822 -0.81871,-5.35284 -0.0345,-1.28505 -0.30145,-2.56534 -0.24455,-3.86567 -0.055,-1.4402 -0.25632,-2.86534 -0.62518,-4.26015 -0.2549,-1.40821 -0.0788,-2.84921 -0.17906,-4.27595 0.18464,-6.09941 -1.91344,-1.79498 11.15716,-8.32446 0.20938,0.40255 0.49002,1.15687 -0.009,1.41149 10e-4,0.83812 -0.255,1.60621 -0.71414,2.30987 -0.3047,0.74982 -0.33795,1.48783 -0.5096,2.27649 -0.29493,1.35509 -0.12926,0.51702 -0.62588,1.75463 -0.11194,0.27895 -0.19302,0.5693 -0.28953,0.85395 -1.00545,3.98064 0.53404,-1.88356 -0.58543,1.69349 -0.091,0.29088 -0.0851,0.60572 -0.17033,0.89836 -0.27003,0.92735 -0.89167,1.67573 -1.25629,2.56065 -1.01753,1.99413 -2.6759,3.56341 -3.98497,5.36513 -1.29133,1.58412 -2.71638,2.9832 -4.1086,4.48412 -1.50848,1.61607 -2.86316,3.35636 -4.53638,4.80741 -0.89304,1.01439 -1.89287,1.92248 -2.77966,2.93628 -0.94373,0.74252 -1.73554,1.66195 -2.66317,2.42669 -1.03033,0.71968 -1.82576,1.72957 -2.62294,2.6929 0,0 -11.71545,4.58393 -11.71545,4.58393 z"
       inkscape:connector-curvature="0" />
    <use
       x="0"
       y="0"
       xlink:href="#path2824"
       id="use3781"
       width="100%"
       height="100%" />
  </g>
</svg>
