<?xml version="1.0" encoding="UTF-8" standalone="no"?>
<!-- Created with Inkscape (http://www.inkscape.org/) -->

<svg
   xmlns:osb="http://www.openswatchbook.org/uri/2009/osb"
   xmlns:dc="http://purl.org/dc/elements/1.1/"
   xmlns:cc="http://creativecommons.org/ns#"
   xmlns:rdf="http://www.w3.org/1999/02/22-rdf-syntax-ns#"
   xmlns:svg="http://www.w3.org/2000/svg"
   xmlns="http://www.w3.org/2000/svg"
   xmlns:xlink="http://www.w3.org/1999/xlink"
   xmlns:sodipodi="http://sodipodi.sourceforge.net/DTD/sodipodi-0.dtd"
   xmlns:inkscape="http://www.inkscape.org/namespaces/inkscape"
   width="158.61995"
   height="132.75885"
   id="svg2"
   version="1.1"
   inkscape:version="0.92.2 (5c3e80d, 2017-08-06)"
   sodipodi:docname="petrielabs_logo_small.svg">
  <sodipodi:namedview
     id="base"
     pagecolor="#ffffff"
     bordercolor="#666666"
     borderopacity="1.0"
     inkscape:pageopacity="0.0"
     inkscape:pageshadow="2"
     inkscape:zoom="1.1790471"
     inkscape:cx="-80.963023"
     inkscape:cy="213.53215"
     inkscape:document-units="px"
     inkscape:current-layer="layer1"
     showgrid="false"
     inkscape:window-width="1660"
     inkscape:window-height="1354"
     inkscape:window-x="270"
     inkscape:window-y="229"
     inkscape:window-maximized="0"
     inkscape:snap-page="true"
     fit-margin-top="2"
     fit-margin-left="2"
     fit-margin-right="2"
     fit-margin-bottom="2" />
  <defs
     id="defs4">
    <linearGradient
       id="linearGradient7181"
       osb:paint="solid">
      <stop
         style="stop-color:#008080;stop-opacity:1;"
         offset="0"
         id="stop7179" />
    </linearGradient>
    <inkscape:perspective
       id="perspective10"
       inkscape:persp3d-origin="372.04724 : 350.78739 : 1"
       inkscape:vp_z="744.09448 : 526.18109 : 1"
       inkscape:vp_y="0 : 1000 : 0"
       inkscape:vp_x="0 : 526.18109 : 1"
       sodipodi:type="inkscape:persp3d" />
    <inkscape:perspective
       sodipodi:type="inkscape:persp3d"
       inkscape:vp_x="0 : 0.5 : 1"
       inkscape:vp_y="0 : 1000 : 0"
       inkscape:vp_z="1 : 0.5 : 1"
       inkscape:persp3d-origin="0.5 : 0.33333333 : 1"
       id="perspective2896" />
  </defs>
  <metadata
     id="metadata7">
    <rdf:RDF>
      <cc:Work
         rdf:about="">
        <dc:format>image/svg+xml</dc:format>
        <dc:type
           rdf:resource="http://purl.org/dc/dcmitype/StillImage" />
        <dc:title></dc:title>
      </cc:Work>
    </rdf:RDF>
  </metadata>
  <g
     id="layer1"
     inkscape:groupmode="layer"
     inkscape:label="Layer 1"
     transform="translate(-468.01494,-696.92529)">
    <path
       d="m 522.15031,724.28539 c -0.0551,0.0245 -0.1111,0.0471 -0.16532,0.0735 -0.23214,0.11302 -0.43723,0.24761 -0.38668,0.2189 3.05038,-1.73222 2.00693,-1.18673 1.35777,-0.74703 -0.53625,0.4217 -0.91444,1.01904 -1.27951,1.58748 -0.25729,0.43211 -0.46885,0.89586 -0.51225,1.4009 -0.005,0.59544 0.19916,1.15747 0.40274,1.70811 0.3089,0.78899 0.69502,1.54336 1.18487,2.23452 0.3396,0.40428 0.68152,0.81704 1.12194,1.11774 0.37569,0.25652 0.65532,0.3762 1.07004,0.58328 1.38184,0.65716 2.89093,0.89219 4.39891,1.03584 1.34807,0.0974 2.68706,-0.0359 4.00992,-0.28798 1.04433,-0.24856 2.05752,-0.62105 3.01319,-1.1104 0.26579,-0.1361 1.05002,-0.56915 0.78477,-0.43201 -0.37652,0.19468 -0.74578,0.4031 -1.11867,0.60465 0.94427,-0.61071 1.61045,-1.26078 1.8889,-2.38423 0.0479,-0.19331 0.0631,-0.3933 0.0947,-0.58995 0.11182,-1.39787 -0.14141,-2.79061 -0.34751,-4.16853 l 1.89715,-1.00241 v 0 c 0.20869,1.39417 0.47127,2.79843 0.39608,4.21375 -0.0256,0.20756 -0.0335,0.41811 -0.0769,0.6227 -0.25794,1.21611 -0.859,1.86689 -1.8686,2.53712 -2.12635,1.26401 -3.94961,2.49092 -6.38311,3.00768 -1.33432,0.23897 -2.68573,0.35529 -4.04097,0.23471 -1.52566,-0.16775 -3.04569,-0.43831 -4.44723,-1.09495 -0.41445,-0.19959 -0.75516,-0.34336 -1.13475,-0.5978 -0.46057,-0.30872 -0.80782,-0.74941 -1.1637,-1.16573 -0.49741,-0.70926 -0.87043,-1.48863 -1.19517,-2.29084 -0.22908,-0.56783 -0.4814,-1.14126 -0.49067,-1.76373 -10e-4,-0.54717 0.22996,-1.05112 0.49478,-1.52116 0.21344,-0.34869 0.44424,-0.68189 0.68289,-1.01393 0.0198,-0.0275 0.32952,-0.44932 0.38273,-0.50771 0.0444,-0.0488 0.0992,-0.0871 0.14874,-0.13062 0.18761,-0.14633 0.14522,-0.12275 0.35775,-0.24798 0.82621,-0.4868 1.71527,-0.88204 2.67754,-1.22337 z"
       id="path2822"
       style="fill:#000000;fill-opacity:1;fill-rule:nonzero;stroke:none;stroke-width:0.30434808"
       inkscape:connector-curvature="0"
       sodipodi:nodetypes="ccccccccccccccccccccccccccccccccccccc" />
    <path
       d="m 473.47078,733.50685 c 0.93302,0.0408 1.86249,-0.0804 2.78473,-0.20807 1.44188,-0.2518 2.8868,-0.48415 4.33083,-0.72331 1.76292,-0.24157 3.524,-0.49446 5.2859,-0.74393 2.39219,-0.38334 4.78422,-0.76773 7.17471,-1.16186 2.74101,-0.44789 5.46853,-0.97284 8.20815,-1.42875 2.32182,-0.38467 4.651,-0.72465 6.97952,-1.06648 2.06615,-0.35419 4.07321,-0.97591 6.05211,-1.65548 1.17092,-0.39626 2.34025,-0.79861 3.49676,-1.23557 0.12311,-0.0502 0.24899,-0.0941 0.36933,-0.15057 0.27798,-0.1305 1.22168,-0.68977 0.75458,-0.42765 -0.73609,0.41306 -1.45678,0.85396 -2.20204,1.25023 -0.20116,0.10696 0.38127,-0.24967 0.5674,-0.38105 0.21849,-0.15423 0.4308,-0.31705 0.6462,-0.47557 1.15362,-0.86306 2.30798,-1.72258 3.51835,-2.50477 1.19431,-0.72823 2.39405,-1.452 3.64029,-2.08793 0,0 -2.47887,1.98918 -2.47887,1.98918 v 0 c -1.49334,0.79091 3.60637,-2.08339 1.75297,-1.03486 -1.2309,0.77599 -2.41455,1.61555 -3.57096,2.49932 -1.6822,1.30196 -3.51087,2.45518 -5.47977,3.26492 -1.13207,0.40713 -2.27393,0.78659 -3.41682,1.16201 -1.99193,0.65693 -4.00532,1.28341 -6.08222,1.60933 -2.30363,0.32978 -4.60892,0.65044 -6.90663,1.01943 -2.75996,0.45635 -5.50244,1.00741 -8.26159,1.46781 -2.38743,0.38403 -4.77566,0.76233 -7.16287,1.14759 -1.78395,0.27583 -3.56699,0.55475 -5.35499,0.80313 -1.44733,0.24634 -2.89823,0.4685 -4.34423,0.72253 -0.95558,0.13385 -1.91456,0.24248 -2.88135,0.22523 0,0 2.58051,-1.87486 2.58051,-1.87486 z"
       id="path2824"
       style="fill:#000000;fill-opacity:1;fill-rule:nonzero;stroke:none;stroke-width:0.30434808"
       inkscape:connector-curvature="0" />
    <path
       d="m 476.70149,746.98717 c 1.77417,-0.2868 3.56931,-0.43817 5.36091,-0.57091 2.13526,-0.19661 4.27414,-0.0833 6.40901,0.0375 3.34837,0.19744 6.6977,0.375 10.04671,0.56145 2.87149,0.15865 5.74288,0.33481 8.60797,0.58562 2.26142,0.25323 4.51627,0.53184 6.78753,0.67885 3.93888,0.15689 7.84123,0.40308 11.75368,0.897 3.66285,0.4549 7.17825,1.61692 10.62173,2.90133 2.20412,0.86538 4.32141,1.92402 6.42993,2.99549 1.11529,0.50671 2.16142,1.12578 3.14381,1.85503 0.53927,0.42282 1.07642,0.84834 1.62429,1.25998 l -2.65559,1.67682 -3.18779,2.19471 c -0.53894,-0.41635 2.12149,-3.04196 1.58542,-3.46203 -0.97297,-0.70674 -2.01333,-1.29781 -3.08919,-1.83454 -2.04648,-1.1045 -4.0932,-2.21484 -6.26505,-3.06127 -3.41019,-1.30317 -6.90995,-2.4047 -10.54364,-2.8731 -3.92082,-0.50478 -7.8631,-0.74072 -11.81508,-0.82639 -0.50347,-0.0197 -1.00745,-0.029 -1.51039,-0.0592 -1.78271,-0.10733 -3.5432,-0.46 -5.32302,-0.60086 -2.83886,-0.26469 -5.68307,-0.46221 -8.5292,-0.63048 -3.37272,-0.20765 -6.74775,-0.38211 -10.12476,-0.50295 -2.13254,-0.10053 -4.26899,-0.18515 -6.40017,0.003 -1.82901,0.14069 -3.66931,0.29339 -5.46136,0.70177 l 2.53425,-1.92729 z"
       id="path2830"
       style="fill:#000000;fill-opacity:1;fill-rule:nonzero;stroke:none;stroke-width:0.30434808"
       inkscape:connector-curvature="0"
       sodipodi:nodetypes="cccccccccccccccccccccccccc" />
    <path
       d="m 534.41961,722.03653 c 1.23585,-2.1797 2.61017,-4.27089 4.0743,-6.30272 1.12237,-1.5152 2.4897,-2.8095 3.87303,-4.07924 1.02885,-0.94145 1.97823,-1.96111 2.91011,-2.99678 0.87748,-1.03396 1.7792,-2.04557 2.72673,-3.01587 0.57373,-0.5613 1.12884,-1.14111 1.72712,-1.67669 1.07392,-0.99871 2.39919,-1.53793 3.69595,-2.27306 0.36162,-0.11564 0.71994,-0.30706 1.10027,-0.36009 0.13008,-0.0181 0.35357,-1.1e-4 0.48521,0.007 0.69286,0.14376 1.1906,0.65156 1.69303,1.11163 1.04566,1.05189 2.08471,2.11039 3.05853,3.22951 1.16392,1.25336 1.91345,2.76876 2.6024,4.31475 0.66659,1.65322 1.26722,3.33434 1.76825,5.0453 0.14491,0.52465 0.0798,0.28142 0.19694,0.72927 0,0 -2.79157,1.50008 -2.79157,1.50008 v 0 c -0.0834,-0.45532 -0.0352,-0.20822 -0.14768,-0.74065 -0.41627,-1.72183 -0.97143,-3.41136 -1.6782,-5.03644 -0.70187,-1.50531 -1.44826,-2.99025 -2.59026,-4.21906 -0.96951,-1.10866 -1.9945,-2.1696 -3.07648,-3.16921 -0.47314,-0.39437 -0.96073,-0.86711 -1.61236,-0.89178 -0.52725,0.0335 -1.01953,0.24409 -1.4961,0.46087 4.63553,-2.70878 2.64682,-1.69561 1.74489,-0.90915 -0.62731,0.54264 -1.2331,1.10519 -1.81966,1.69209 -0.95978,0.94736 -1.85029,1.95986 -2.71494,2.99437 -0.9457,1.04766 -1.90148,2.08483 -2.94114,3.04168 -1.3959,1.27626 -2.79975,2.55243 -3.9645,4.0522 -1.45487,1.9723 -2.85104,3.99592 -3.95123,6.19235 0,0 -2.87264,1.29967 -2.87264,1.29967 z"
       id="path2832"
       style="fill:#000000;fill-opacity:1;fill-rule:nonzero;stroke:none;stroke-width:0.30434808"
       inkscape:connector-curvature="0" />
    <path
       d="m 519.68698,723.81265 c 0.85775,-1.54834 1.89649,-2.98643 2.94,-4.41267 1.88343,-2.47084 3.8111,-4.90699 5.67914,-7.39006 1.3657,-1.77596 2.62441,-3.62928 3.89262,-5.47489 0.88225,-1.23333 1.77098,-2.46068 2.58408,-3.74104 0.34518,-0.62942 0.73524,-1.21917 1.25156,-1.7191 1.03266,-0.88243 2.31924,-1.45336 3.48409,-2.10459 0.12656,-0.0708 0.14751,-0.0434 0.27635,-0.0166 0.22721,0.0911 0.40103,0.26652 0.59095,0.41889 0.52599,0.64599 0.99143,1.33944 1.45923,2.02844 0.64462,0.92616 1.18211,1.91636 1.73052,2.90033 0.59833,1.11273 1.14932,2.25244 1.65457,3.41047 0.19645,0.54532 0.50735,1.03272 0.77455,1.54192 0.18599,0.34246 0.37716,0.68555 0.60239,1.00381 0,0 -2.75227,1.61784 -2.75227,1.61784 v 0 c -0.2249,-0.33626 -0.42829,-0.68854 -0.6302,-1.0391 -0.24839,-0.52844 -0.53603,-1.03866 -0.72358,-1.595 -0.46475,-1.16405 -1.01384,-2.29296 -1.6375,-3.3804 -0.5397,-0.97832 -1.06645,-1.96314 -1.71019,-2.87921 -0.45255,-0.66385 -0.91532,-1.3289 -1.47909,-1.90425 -0.12453,-0.0975 -0.28759,-0.28199 -0.4605,-0.2173 -0.87526,0.54659 -2.3869,1.37789 2.38645,-1.39346 0.0591,-0.0343 -0.11875,0.0677 -0.17703,0.10334 -0.21609,0.13225 -0.23846,0.15298 -0.45489,0.30394 -0.54359,0.47468 -0.99056,1.01858 -1.3265,1.66367 -0.84085,1.29006 -1.73837,2.53778 -2.64846,3.77999 -1.28928,1.86245 -2.57563,3.72853 -3.96311,5.52009 -1.87986,2.46207 -3.81084,4.8853 -5.65533,7.37396 -1.00182,1.37511 -2.00919,2.7594 -2.7761,4.28365 0,0 -2.91175,1.31737 -2.91175,1.31737 z"
       id="path2834"
       style="fill:#000000;fill-opacity:1;fill-rule:nonzero;stroke:none;stroke-width:0.30434808"
       inkscape:connector-curvature="0" />
    <path
       d="m 547.48706,758.18852 c -1.63926,2.34378 -0.93332,4.52164 -2.34115,7.00855 -1.31489,2.39444 -2.88569,4.62794 -4.33871,6.9365 -0.93691,1.64203 -1.73609,3.35901 -2.56391,5.05791 -0.35777,0.80401 -0.67706,1.61771 -1.10281,2.39005 -0.9709,1.70288 -1.94634,3.4033 -2.92253,5.10334 -0.66586,1.10256 -1.28005,2.23532 -1.80456,3.41189 -0.43088,1.05994 -0.96963,2.09683 -1.45684,3.14324 -1.01617,2.05886 -1.92266,4.16912 -2.90139,6.24524 -0.43937,0.90944 -0.99096,1.76207 -1.6357,2.53866 -0.82797,1.06787 -1.57356,2.20887 -2.39987,3.28928 -1.05138,1.42894 -2.20388,2.77791 -3.29278,4.17749 -0.44509,0.50934 -0.89564,1.01057 -1.2072,1.61447 -1.30659,1.73715 -2.89051,3.2381 -4.39544,4.79904 -1.13859,1.151 -2.02019,2.49767 -2.92418,3.82733 -0.36021,0.45288 -0.63299,0.91004 -1.04056,1.32926 -0.59311,0.41159 -1.16169,0.85452 -1.65949,1.37919 -0.3274,0.34219 -0.17628,0.39788 -0.49532,-0.26164 -0.0857,-0.17712 -0.17369,-0.3531 -0.26053,-0.52966 l -7.09259,5.72138 v 0 c -0.37481,-0.38244 -1.05544,-0.89896 -0.52136,-1.39798 0.4831,-0.59404 0.99506,-1.12785 1.59799,-1.58909 0.16056,-0.0678 0.61381,-0.23469 0.72066,-0.39514 0.15058,-0.22611 0.14269,-0.5158 0.44141,-0.67449 1.06333,-1.29429 1.85054,-2.8055 3.05489,-3.99777 1.42714,-1.5175 2.95363,-2.94706 4.24557,-4.58039 0.48234,-0.5107 0.62715,-1.31091 1.24386,-1.72623 1.19668,-1.31431 2.24769,-2.77363 3.36938,-4.15389 0.79193,-1.08386 1.7052,-2.08966 2.24708,-3.33196 0.72698,-0.68563 1.34638,-1.48307 1.84023,-2.35196 1.10498,-2.00914 1.90169,-4.17901 2.94676,-6.21998 0.33409,-0.76127 0.71795,-1.52877 1.01968,-2.30279 0.045,-0.11548 0.0333,-0.25067 0.0903,-0.36069 0.0304,-0.0586 0.12888,-0.0597 0.15839,-0.11871 0.0452,-0.0905 0.0337,-0.19949 0.0506,-0.29924 0.56514,-1.22548 1.20176,-2.4215 1.92049,-3.56363 0.97989,-1.66282 1.94303,-3.35153 2.80115,-5.07662 0.5027,-0.71821 0.84569,-1.50456 1.14068,-2.32804 0.92089,-1.70634 1.77574,-3.44423 2.63988,-5.17927 1.46991,-2.31477 3.04739,-4.55536 4.42505,-6.92937 1.3949,-2.44289 3.05428,-4.3547 4.55951,-6.73275 z"
       id="path2840"
       style="fill:#000000;fill-opacity:1;fill-rule:nonzero;stroke:none;stroke-width:0.30434808"
       inkscape:connector-curvature="0"
       sodipodi:nodetypes="ccccccccccccccccccccccccccccccccccccccccccc" />
    <path
       d="m 579.93831,806.72567 c -1.07711,0.17312 -2.10282,0.52401 -3.11869,0.91048 -1.68268,0.66034 -4.79515,2.59604 2.20083,-1.41605 -0.52815,0.30654 -0.95154,0.74213 -1.37917,1.17119 -0.36648,0.28999 -0.63492,0.64891 -0.89488,1.02837 -0.32401,0.34033 -0.30781,0.82408 -0.33207,1.26457 -0.0332,0.51653 0.0529,1.03849 0.21118,1.52989 0.16688,0.50766 0.45918,0.9597 0.80054,1.36622 0.40142,0.48131 0.91237,0.82237 1.4686,1.09866 1.03707,0.47803 2.14825,0.73392 3.2555,0.98904 1.13314,0.1979 2.26654,0.39246 3.41191,0.50622 1.43811,0.11505 2.88203,0.11476 4.32373,0.12382 1.40422,0.0336 2.80091,-0.16256 4.17595,-0.42937 1.54065,-0.20338 3.00967,-0.59794 4.43962,-1.20199 2.53823,-1.36158 -1.35049,0.83926 -2.05783,1.20012 -0.31337,0.15987 0.58596,-0.3901 0.86765,-0.60085 0.80404,-0.60156 1.51136,-1.28345 2.20279,-2.00749 1.05171,-1.14188 1.77003,-2.49248 2.19065,-3.97716 0.27843,-1.09554 0.11893,-2.19257 -0.27694,-3.23299 -0.36207,-1.00236 -0.88862,-1.91496 -1.49799,-2.78258 -0.63,-0.66206 -1.49936,-1.04653 -2.34031,-1.37116 -0.72903,-0.33652 -1.51587,-0.46944 -2.28991,-0.64825 -1.11057,-0.21559 -2.24642,-0.24529 -3.37397,-0.27971 -1.94097,-0.0784 -3.87957,0.0644 -5.81192,0.23304 -1.94853,0.24215 -3.90249,0.43947 -5.83839,0.77145 -1.64945,0.26714 -3.28332,0.61852 -4.92623,0.92109 -1.18843,0.1389 -2.34051,0.44612 -3.50502,0.70381 -0.54244,0.007 -0.98468,0.2526 -1.46736,0.45574 6.95314,-3.63104 4.14616,-2.68248 2.98297,-1.56764 -0.25196,0.22927 -0.45992,0.49088 -0.66053,0.76485 -0.27115,0.4016 -0.54781,0.79956 -0.82018,1.2007 -0.31699,0.53996 -0.47943,1.14501 -0.6369,1.74559 -0.0978,0.59999 -0.26786,1.17818 -0.44744,1.75698 -0.0925,0.44273 0.0395,0.91961 0.13466,1.35388 0.1455,0.55595 0.18042,1.13285 0.29553,1.69375 0.1653,0.49931 0.33196,0.99901 0.53216,1.4857 0.22793,0.55938 0.49242,1.08433 0.84132,1.57514 0.34862,0.40248 0.77997,0.70677 1.17022,1.0691 0.49042,0.38506 0.98752,0.76019 1.46703,1.15898 0.34769,0.27888 0.6592,0.59802 1.00896,0.87311 0.37334,0.20155 0.69058,0.48641 1.04104,0.72127 0.41048,0.27659 0.83526,0.53211 1.26401,0.78161 0.75818,0.43845 1.5054,0.88988 2.31476,1.22858 0.70875,0.22568 1.44077,0.36056 2.16063,0.55005 0.87316,0.23263 1.77178,0.32256 2.671,0.3738 1.02395,0.0371 2.04894,0.0424 3.07348,0.0424 1.20255,6.1e-4 2.40509,-0.006 3.60764,-0.008 1.24471,0.0285 2.48398,-0.0121 3.72581,-0.0875 1.49622,-0.15514 2.98821,-0.34231 4.48807,-0.46047 0.97303,-0.008 1.92901,-0.18521 2.89589,-0.27038 0.94267,-3e-4 1.8624,-0.11267 2.78824,-0.27102 0.85173,-0.22066 1.66828,-0.515 2.44464,-0.93104 0.17994,-0.10035 0.36006,-0.20036 0.53981,-0.30103 0.18893,-0.1058 0.75414,-0.42604 0.56625,-0.31839 -1.06965,0.61285 -2.13276,1.23738 -3.21155,1.83399 -0.22216,0.12287 0.42951,-0.27091 0.64051,-0.41209 0.2226,-0.14894 0.44416,-0.29968 0.6601,-0.45811 0.19949,-0.14636 0.3905,-0.30396 0.58575,-0.45594 1.09496,-0.88443 2.16535,-1.79918 3.18823,-2.76614 1.31139,-1.22698 2.32662,-2.69543 3.22526,-4.23821 0.79814,-1.3855 1.33701,-2.89522 1.8487,-4.40377 0.56479,-1.60503 0.94224,-3.26651 1.34947,-4.91638 0.36398,-1.4479 0.76735,-2.88702 1.24446,-4.30189 0.61008,-1.54184 0.94178,-3.16728 1.18249,-4.80172 0.29196,-2.01886 0.1839,-4.05757 0.11728,-6.08703 -0.0625,-2.2053 -0.0515,-4.41004 -0.224,-6.61037 -0.23372,-2.50416 -1.16772,-4.86157 -1.93622,-7.2358 -0.52974,-1.59033 -1.09018,-3.16995 -1.73569,-4.7172 -0.33814,-0.77492 -0.81301,-1.47647 -1.23603,-2.20565 -0.0968,-0.21538 -0.17741,-0.46943 -0.42791,-0.49306 -0.0227,-10e-4 -0.0598,-0.0245 -0.068,-0.003 -0.0165,0.043 0.0218,0.0913 0.0166,0.13707 -0.003,0.0271 -0.0268,0.0475 -0.0402,0.0712 1.25708,-0.74563 2.50274,-1.51084 3.77123,-2.23688 0.0695,-0.0398 -0.0617,0.14888 -0.0778,0.22733 -0.0576,0.4102 0.0737,0.81014 0.1626,1.20648 0.0308,0.32761 0.16846,0.60429 0.29916,0.89847 0.14229,0.43434 0.13743,0.9038 0.15661,1.3568 0.0127,0.30009 0.0172,0.60049 0.0123,0.9008 -0.003,0.48365 0.12891,0.95683 0.19388,1.43518 0.0854,0.74516 -0.0569,1.49052 -0.12711,2.23147 -0.0252,0.73738 -0.16663,1.46054 -0.36495,2.16878 -0.29409,1.10883 -0.63682,2.20453 -0.88931,3.32382 -0.24268,1.32778 -0.6317,2.62037 -0.97902,3.92264 -0.10591,0.58503 -0.35422,1.11854 -0.59431,1.65637 -0.47481,1.10383 -1.03984,2.16714 -1.65756,3.19706 -0.51542,0.88507 -1.08725,1.73467 -1.65909,2.58368 -0.20777,0.25217 -0.38897,0.53761 -0.62125,0.76221 -0.47996,0.59084 -1.00724,1.15289 -1.50558,1.73218 -0.61294,0.74866 -1.28031,1.44839 -1.93314,2.16155 -0.67514,0.723 -1.44941,1.3388 -2.18186,2.00015 -0.33714,0.33101 -0.69479,0.63836 -1.07637,0.91658 0,0 -4.22835,1.64466 -4.22835,1.64466 v 0 c 0.42516,-0.23728 0.82526,-0.52256 1.16764,-0.87041 0.71919,-0.6593 1.47747,-1.26962 2.17298,-1.95313 0.6651,-0.72101 1.35959,-1.41186 1.98747,-2.16634 0.352,-0.41684 0.7,-0.83539 1.05882,-1.24609 0.0931,-0.10652 0.15735,-0.23687 0.25508,-0.33912 0.0322,-0.0337 0.0784,-0.0505 0.11765,-0.0757 0.2889,-0.5603 -0.12677,0.19066 0.16595,-0.19604 0.0305,-0.0403 0.0279,-0.099 0.0565,-0.14062 0.11316,-0.16475 0.34102,-0.25982 0.43186,-0.4457 0.6504,-0.80181 1.1824,-1.70499 1.73572,-2.57482 0.62154,-0.99113 1.17259,-2.02793 1.62831,-3.1048 0.20377,-0.54602 0.49973,-1.05225 0.63495,-1.62029 0.39091,-1.29109 0.81251,-2.57766 1.03204,-3.91237 0.21476,-1.12173 0.55866,-2.20728 0.81988,-3.31831 0.17659,-0.69108 0.40358,-1.37962 0.41231,-2.10112 0.0469,-0.71233 0.1913,-1.42443 0.14784,-2.13656 -0.0611,-0.49702 -0.19189,-0.98244 -0.2439,-1.47641 -0.003,-0.29817 0.005,-0.59618 0.004,-0.89437 -0.004,-0.3993 -6.1e-4,-0.80854 -0.0895,-1.19914 -0.13179,-0.32403 -0.30727,-0.62489 -0.32355,-0.9843 -0.0897,-0.44064 -0.24779,-0.87122 -0.24356,-1.32369 0.048,-1.782 2.71664,-3.63544 4.24617,-2.73643 0.27808,0.17828 0.45933,0.45463 0.56752,0.76497 0.38354,0.76987 0.85673,1.49247 1.18703,2.28876 0.62548,1.57288 1.17631,3.17174 1.68132,4.78737 0.74953,2.41277 1.6457,4.8063 1.98191,7.32147 0.1994,2.20332 0.16092,4.41339 0.2481,6.62287 0.07,2.04848 0.19061,4.106 -0.072,6.14668 -0.20459,1.65094 -0.49823,3.30283 -1.10295,4.8602 -0.49583,1.40369 -0.89967,2.83925 -1.283,4.27693 -0.41491,1.65237 -0.7884,3.31826 -1.3148,4.93908 -0.51113,1.53703 -1.06024,3.0743 -1.84523,4.4959 -0.87296,1.57166 -1.86623,3.06864 -3.14727,4.34328 -1.0115,0.98591 -2.07302,1.9165 -3.17341,2.80255 -2.23217,1.84433 -4.82735,3.17367 -7.36895,4.54355 -0.81952,0.37685 -1.66849,0.69258 -2.56018,0.85015 -0.92452,0.14045 -1.85463,0.15854 -2.78568,0.23452 -0.96162,0.10512 -1.9201,0.23361 -2.88896,0.25278 -1.49024,0.10925 -2.97336,0.28781 -4.46022,0.43392 -1.25742,0.0873 -2.51395,0.1042 -3.77433,0.0876 -1.19908,6.1e-4 -2.39816,-0.003 -3.59724,-3e-4 -1.04216,-6.1e-4 -2.0859,0.0251 -3.12657,-0.0436 -0.91261,-0.0794 -1.82013,-0.20571 -2.7074,-0.44028 -0.74537,-0.16866 -1.50446,-0.31335 -2.21176,-0.61035 -0.80796,-0.3735 -1.55837,-0.84465 -2.34216,-1.26457 -0.45044,-0.24874 -0.90369,-0.49623 -1.31978,-0.80068 -0.34533,-0.25828 -0.69387,-0.5119 -1.05153,-0.75286 -0.33912,-0.29091 -0.67559,-0.58393 -1.01106,-0.87901 -0.47279,-0.40841 -0.97468,-0.7807 -1.45208,-1.18359 -0.42761,-0.37106 -0.9081,-0.67978 -1.24601,-1.14343 -0.3594,-0.52106 -0.62462,-1.08322 -0.86365,-1.66949 -0.22341,-0.50268 -0.42649,-1.0151 -0.59504,-1.53819 -0.14864,-0.55634 -0.11738,-1.1497 -0.28137,-1.70643 -0.12311,-0.51328 -0.25107,-1.02761 -0.26341,-1.55872 0.18792,-0.5771 0.42223,-1.1371 0.50098,-1.74471 0.13415,-0.63361 0.28205,-1.25946 0.54661,-1.8518 0.22439,-0.44074 0.56634,-0.80687 0.79816,-1.23975 0.20616,-0.28497 0.3773,-0.57015 0.62139,-0.82251 1.32427,-1.40723 2.74292,-2.03497 4.75432,-2.97185 0.48427,-0.20892 0.98833,-0.29527 1.50657,-0.3804 1.13529,-0.25062 2.27846,-0.44806 3.42708,-0.62783 1.6447,-0.3203 3.28541,-0.66458 4.94227,-0.9185 1.93064,-0.29439 3.8725,-0.50266 5.81402,-0.71084 1.96743,-0.15506 3.94033,-0.32445 5.91571,-0.24661 1.15841,0.0377 2.32393,0.0856 3.46307,0.31578 0.79795,0.16048 1.57123,0.4038 2.32084,0.72373 0.90026,0.39329 1.84492,0.81527 2.48305,1.58822 0.60586,0.90814 1.14628,1.85324 1.5297,2.88019 0.45105,1.10878 0.63503,2.30116 0.40077,3.48842 -0.39186,1.5531 -1.11526,2.98436 -2.16673,4.20137 -2.32642,2.59481 -5.31866,4.39441 -8.50481,5.81535 -1.46774,0.56661 -2.97143,0.94459 -4.53117,1.15906 -1.39401,0.23755 -2.80027,0.41128 -4.21808,0.35756 -1.45812,-0.0104 -2.91914,-0.0215 -4.37295,-0.1431 -1.1559,-0.13256 -2.30699,-0.31736 -3.44653,-0.55152 -1.13322,-0.28035 -2.27301,-0.55444 -3.33023,-1.06521 -0.60899,-0.3146 -1.16825,-0.68811 -1.59354,-1.23681 -0.36958,-0.44952 -0.69484,-0.94929 -0.89373,-1.49891 -0.19629,-0.5317 -0.27814,-1.12473 -0.27661,-1.68864 0.016,-0.50134 -0.0243,-1.04181 0.18811,-1.50717 0.31927,-0.35687 0.48883,-0.82523 0.90549,-1.10279 0.44524,-0.40657 0.81055,-0.90858 1.32252,-1.22928 1.86301,-1.08501 3.52146,-2.29038 5.52649,-2.98379 1.05145,-0.37256 2.11791,-0.69496 3.22225,-0.87093 0,0 -3.61647,2.70674 -3.61647,2.70674 z"
       id="path2846"
       style="fill:#000000;fill-opacity:1;fill-rule:nonzero;stroke:none;stroke-width:0.30434808"
       inkscape:connector-curvature="0" />
    <path
       d="m 565.71327,715.54093 c -0.60926,0.52007 -1.18854,1.06698 -1.73385,1.65378 -0.56195,0.56603 -0.99485,1.23777 -1.48165,1.86525 -0.88927,0.92042 -1.63972,1.95382 -2.41865,2.96451 -0.39505,0.42611 -0.73479,0.8598 -1.00157,1.37411 -0.36449,0.82935 -0.55926,1.71568 -0.84732,2.57112 -0.29208,0.94696 -0.68167,1.85851 -1.05046,2.77695 -0.25608,0.6033 -0.3817,1.24346 -0.53509,1.87652 -0.2407,0.7749 -0.2245,1.5749 -0.19578,2.37576 0.0964,1.46079 0.42036,2.88889 0.85182,4.28332 0.3054,1.07665 0.93227,1.96536 1.5871,2.85086 0.4833,0.66911 1.09221,1.23456 1.57942,1.90036 0.33629,0.55426 0.77781,0.9977 1.28335,1.39754 0.56593,0.43074 1.08502,0.92396 1.6853,1.30864 0.0686,0.0392 0.13718,0.0785 0.20577,0.11771 0,0 -3.79776,2.45025 -3.79776,2.45025 v 0 c -0.0702,-0.0465 -0.14034,-0.093 -0.21051,-0.13945 -0.58384,-0.42234 -1.10947,-0.91573 -1.68214,-1.35222 -0.53081,-0.43405 -1.01596,-0.88945 -1.36567,-1.48663 -0.48059,-0.66545 -1.05527,-1.25714 -1.5327,-1.92518 -0.68106,-0.93096 -1.35483,-1.85133 -1.65383,-2.98895 -0.41371,-1.43333 -0.74529,-2.88799 -0.90009,-4.37479 -0.0661,-0.82671 -0.15484,-1.662 0.075,-2.47367 0.18499,-0.64681 0.26142,-1.31765 0.5455,-1.9361 0.34237,-0.92453 0.7899,-1.81142 1.05599,-2.76421 0.31101,-0.85264 0.51177,-1.73699 0.80542,-2.59529 0.22789,-0.58265 0.50234,-1.07623 0.98563,-1.49325 0.82987,-0.96971 1.50571,-2.07111 2.4299,-2.96215 0.49369,-0.61587 0.8939,-1.29922 1.42754,-1.88182 0.54267,-0.58431 1.07746,-1.18108 1.71597,-1.66431 0,0 4.17336,-1.72866 4.17336,-1.72866 z"
       id="path2848"
       style="fill:#000000;fill-opacity:1;fill-rule:nonzero;stroke:none;stroke-width:0.30434808"
       inkscape:connector-curvature="0" />
    <path
       d="m 557.06154,742.61938 c 0.91679,0.17268 1.8595,0.14915 2.7739,0.32355 0.60163,0.0681 1.11889,0.35709 1.65762,0.60433 0.76393,0.3544 1.47212,0.81159 2.1486,1.3101 0.6419,0.56869 1.31776,1.06591 2.0866,1.4465 0.78498,0.44301 1.58695,0.85484 2.37287,1.29595 1.029,0.40501 1.91063,1.01574 2.7478,1.72449 1.13963,0.96888 2.36349,1.82991 3.53058,2.76411 1.31694,1.01762 2.36208,2.29746 3.28259,3.67088 0.96136,1.49304 1.68518,3.11456 2.36057,4.75137 0.47193,1.14924 0.60156,2.38591 0.82384,3.59639 0.22256,1.02056 0.36909,2.05342 0.43341,3.0954 0.0798,1.48095 -0.0324,2.96118 -0.11766,4.43904 -0.12066,1.28244 -0.248,2.56549 -0.45796,3.83674 -0.17268,1.22148 -0.47388,2.41493 -0.80912,3.60011 -0.39263,1.44066 -0.65881,2.90729 -0.89042,4.38067 -0.27566,1.53206 -0.5708,3.06121 -0.78995,4.6026 -0.26266,1.8799 -0.85319,3.69428 -1.3636,5.5175 -0.43242,1.56822 -0.74639,3.16583 -1.13954,4.74365 -0.19123,0.89528 -0.50824,1.74646 -0.86142,2.58822 0,0 -4.05595,1.86653 -4.05595,1.86653 v 0 c 0.35085,-0.82618 0.67366,-1.66164 0.88753,-2.53502 0.47055,-1.58165 0.79619,-3.20389 1.23872,-4.7934 0.49845,-1.79578 1.03065,-3.59247 1.32706,-5.43479 0.21107,-1.54613 0.49606,-3.08044 0.79466,-4.61189 0.22385,-1.48821 0.45342,-2.97102 0.86014,-4.42374 0.31776,-1.17217 0.61229,-2.33628 0.7889,-3.54011 0.22149,-1.26745 0.38835,-2.5419 0.53441,-3.82073 0.0893,-1.45263 0.17903,-2.90531 0.0785,-4.36038 -0.0566,-1.02758 -0.16866,-2.05064 -0.38292,-3.05865 -0.22267,-1.18257 -0.35806,-2.39013 -0.76689,-3.52873 -0.6236,-1.62353 -1.31901,-3.22804 -2.27839,-4.68571 -0.92345,-1.31672 -1.95267,-2.56089 -3.2382,-3.54397 -1.17936,-0.9299 -2.39582,-1.81162 -3.5685,-2.75021 -0.8339,-0.67127 -1.71761,-1.23121 -2.70723,-1.65229 -0.7941,-0.43198 -1.60692,-0.82858 -2.39546,-1.27107 -0.75987,-0.42648 -1.44383,-0.94433 -2.10674,-1.50881 -0.66859,-0.47593 -1.37171,-0.90027 -2.12991,-1.21967 -0.50333,-0.23747 -1.01502,-0.44288 -1.57197,-0.51589 -0.91049,-0.12992 -1.83362,-0.20181 -2.75142,-0.24764 0,0 3.6549,-2.65543 3.6549,-2.65543 z"
       id="path2850"
       style="fill:#000000;fill-opacity:1;fill-rule:nonzero;stroke:none;stroke-width:0.30434808"
       inkscape:connector-curvature="0" />
    <path
       d="m 507.96002,824.53674 c 0.65559,0.21111 1.33061,0.35974 2.01386,0.44467 0.36879,0.0454 0.7407,0.0416 1.11149,0.0401 0.55989,-0.004 1.11969,0.008 1.67958,0.0106 0.88021,0.0672 1.71673,-0.0965 2.55114,-0.35499 1.31319,-0.60578 3.877,-1.85039 -1.90939,1.19249 -0.31935,0.16794 0.60251,-0.39757 0.89514,-0.60867 0.80641,-0.58171 1.27271,-0.97714 2.04802,-1.60451 1.9212,-1.51202 3.57057,-3.31836 5.32672,-5.00833 1.04493,-1.01589 2.12962,-1.99014 3.23434,-2.94031 0,0 4.09378,-1.65721 4.09378,-1.65721 v 0 c -1.12728,0.94833 -2.23342,1.92442 -3.29878,2.94194 -1.79814,1.66739 -3.41768,3.52613 -5.34892,5.05079 -2.60071,2.14973 -5.36076,4.24385 -8.58705,5.36384 -0.86434,0.22633 -1.73741,0.30307 -2.63141,0.2604 -0.57477,0.004 -1.14941,0.0198 -1.7242,0.016 -0.37949,-0.008 -0.75878,-0.0357 -1.13258,-0.10498 -0.69095,-0.12684 -1.36959,-0.30731 -2.04754,-0.49014 0,0 3.7258,-2.55163 3.7258,-2.55163 z"
       id="path2852"
       style="fill:#000000;fill-opacity:1;fill-rule:nonzero;stroke:none;stroke-width:0.30434808"
       inkscape:connector-curvature="0" />
    <path
       d="m 527.36686,821.57202 c 0.67597,0.50982 1.35129,1.02253 2.08078,1.45401 0.43292,0.34382 0.91209,0.5871 1.45064,0.70358 0.28339,0.0249 0.64586,0.10852 0.89189,-0.0531 0.59977,-0.29921 1.18793,-0.63408 1.79611,-0.92492 1.10855,-0.57349 2.33584,-0.84145 3.50497,-1.25722 1.86154,-0.71895 3.62266,-1.66608 5.42444,-2.5186 1.82209,-0.877 3.64376,-1.75466 5.42538,-2.71204 -1.00085,0.57254 -1.99463,1.15764 -3.00255,1.71764 -0.26405,0.1467 0.51518,-0.31559 0.77024,-0.4774 0.26474,-0.16795 0.52978,-0.33563 0.7891,-0.51184 1.07995,-0.73386 2.06785,-1.5734 3.06801,-2.41044 2.29271,-1.9818 4.54734,-4.01175 6.58998,-6.25299 0.61586,-0.73534 1.21697,-1.48754 1.76726,-2.27386 0,0 4.13233,-1.79778 4.13233,-1.79778 v 0 c -0.57952,0.8341 -1.25029,1.6005 -1.88863,2.38942 -2.07105,2.25368 -4.33796,4.30766 -6.63395,6.32957 -0.43477,0.37525 -1.61793,1.40602 -2.11256,1.7993 -2.11622,1.68259 -4.63735,2.82421 -6.90634,4.24352 -1.77378,0.93061 -3.57913,1.79763 -5.388,2.65758 -1.83349,0.87773 -3.62791,1.85558 -5.54303,2.54813 -1.17886,0.38868 -2.38686,0.71613 -3.48287,1.31511 -0.62096,0.3224 -1.2323,0.72036 -1.91713,0.88605 -0.34385,-0.0157 -0.69252,-0.0159 -1.02031,-0.1367 -0.54289,-0.18866 -1.02921,-0.48386 -1.48874,-0.82772 -0.72008,-0.46154 -1.3938,-0.98772 -2.11045,-1.45396 0,0 3.80343,-2.43529 3.80343,-2.43529 z"
       id="path2854"
       style="fill:#000000;fill-opacity:1;fill-rule:nonzero;stroke:none;stroke-width:0.30434808"
       inkscape:connector-curvature="0" />
    <path
       d="m 549.38944,815.79248 c 0.6195,0.75668 1.38577,1.34604 2.15715,1.93446 0.91148,0.69464 1.8665,1.32238 2.83717,1.92969 0.57415,0.36514 1.20336,0.62509 1.7969,0.95572 0.96411,0.30433 1.9601,0.50006 2.95602,0.6693 0.96944,0.15283 1.94985,0.2005 2.92956,0.2214 1.90219,-0.23014 3.73653,-0.88057 5.55669,-1.45699 2.0564,-0.67376 4.15102,-1.2175 6.18506,-1.95913 0.32082,-0.1523 0.64164,-0.30459 0.96246,-0.45688 -0.882,0.4985 -1.74235,1.03743 -2.646,1.49552 -0.39739,0.20145 0.75415,-0.47488 1.12366,-0.7238 1.03588,-0.69783 2.01399,-1.47006 2.99627,-2.23985 0,0 4.03088,-1.61337 4.03088,-1.61337 v 0 c -3.0731,2.41745 -6.28533,4.72426 -9.92462,6.23582 -2.02822,0.70636 -4.10916,1.23935 -6.14894,1.91045 -1.88249,0.58909 -3.79319,1.3098 -5.77383,1.43535 -0.98456,-0.0368 -1.96674,-0.12752 -2.93813,-0.29611 -1.03946,-0.19467 -2.11032,-0.3551 -3.09189,-0.75863 -0.5915,-0.33472 -1.22552,-0.59449 -1.77705,-0.99786 -0.96904,-0.62584 -1.91046,-1.29093 -2.84594,-1.96579 -0.81025,-0.60104 -1.5686,-1.25323 -2.25392,-1.99666 0,0 3.8685,-2.32264 3.8685,-2.32264 z"
       id="path2856"
       style="fill:#000000;fill-opacity:1;fill-rule:nonzero;stroke:none;stroke-width:0.30434808"
       inkscape:connector-curvature="0" />
    <path
       d="m 528.92833,723.16452 c -0.36581,0.68457 -0.70081,1.39191 -0.94097,2.13 -0.053,0.34111 0.22128,0.54629 0.52316,0.63716 0.15278,0.12277 0.41732,0.0279 0.57518,0.0903 0.1265,0.05 0.228,0.1493 0.35164,0.2059 0.24159,0.14504 0.47456,0.17877 0.7469,0.19677 0.21862,-0.006 0.43799,-0.0116 0.65724,-0.014 0.21474,-0.005 0.42947,-0.003 0.64426,-0.006 2.06615,-0.0393 0.2009,-0.0142 -5.16879,2.89832 -0.0353,0.0191 0.0523,-0.0616 0.0694,-0.0975 0.0672,-0.14123 0.0634,-0.30086 0.0683,-0.45261 -0.0112,-0.31018 0.11069,-0.59172 0.23403,-0.86914 0.20451,0.36079 -0.0719,-0.23434 -0.13804,-0.28235 -0.36405,-0.25145 -0.53418,-0.67613 -0.80487,-1.01437 -0.18351,-0.23886 -0.38862,-0.46462 -0.49911,-0.74448 -0.01,-0.0314 -0.0195,-0.0628 -0.0292,-0.0942 0,0 5.44972,-2.88445 5.44972,-2.88445 v 0 c 6.1e-4,0.0162 10e-4,0.0323 0.002,0.0485 0.0152,0.19715 0.27179,0.39405 0.36436,0.57131 0.26131,0.34834 0.47244,0.72135 0.81783,0.99702 0.20359,0.28671 0.3404,0.62227 0.49583,0.93768 -0.15487,0.17606 -0.25548,0.38695 -0.39489,0.57371 0.0396,2.43553 -1.14566,4.09089 -5.46588,4.00083 -0.21288,-0.002 -0.42566,0.003 -0.63851,-9.2e-4 -0.24142,-0.003 -0.48494,-0.002 -0.7197,-0.0662 -0.2903,-0.0739 -0.55218,-0.21005 -0.82432,-0.33177 -0.29999,-0.12714 -0.65986,-0.12411 -0.94114,-0.32976 -0.45758,-0.30172 -0.85805,-0.71571 -0.88788,-1.28672 0.0172,-0.8178 0.58648,-1.56163 0.86376,-2.31665 0,0 5.59017,-2.49652 5.59017,-2.49652 z"
       id="path2886"
       style="fill:#000000;fill-opacity:1;fill-rule:nonzero;stroke:none;stroke-width:0.29026172"
       inkscape:connector-curvature="0" />
    <path
       d="m 483.78034,743.9583 c 0.52223,-0.27896 1.06384,-0.51087 1.59855,-0.76014 0.45583,-0.21026 0.91569,-0.40814 1.37951,-0.5984 0.5017,-0.2682 1.04399,-0.4289 1.57729,-0.60926 0.75195,-0.18314 1.47883,-0.45579 2.2214,-0.67387 0.54275,-0.15021 1.08696,-0.29923 1.62268,-0.47639 0.35488,-0.22328 0.93988,-0.12145 1.24914,-0.40568 -0.55721,0.4833 -1.11441,0.96659 -1.67162,1.44989 0.0596,0.0296 0.20252,0.17846 0.1202,0.21503 -0.0641,0.0285 -0.1532,-0.0114 -0.20882,-0.0262 -0.2464,-0.0456 -0.47367,-0.14644 -0.70914,-0.23122 -0.2859,-0.17079 -0.59113,-0.29305 -0.89955,-0.40934 -0.71968,-0.23242 -1.45135,-0.41029 -2.1941,-0.53606 -1.30077,-0.18508 -2.58503,-0.44675 -3.86373,-0.75876 -1.61056,-0.41582 -3.20959,-0.88227 -4.80182,-1.37045 -1.76846,-0.59486 -3.57639,-0.99716 -5.41575,-1.23875 -1.25227,-0.14244 -2.511,-0.19873 -3.76964,-0.22224 0,0 1.56447,-1.64377 1.56447,-1.64377 v 0 c 1.24447,0.0657 2.48834,0.15399 3.72741,0.29511 0.85058,0.11166 1.13262,0.13314 1.96564,0.3024 1.17979,0.23973 2.33151,0.60478 3.48664,0.94813 1.59415,0.47942 3.19423,0.93842 4.80554,1.34918 1.28643,0.30556 2.58021,0.53493 3.8874,0.71455 0.75812,0.13227 1.50871,0.30575 2.24482,0.54071 0.31329,0.11098 0.61554,0.24359 0.91179,0.39754 0.22083,0.0824 0.44335,0.16311 0.67728,0.19197 0.0609,-0.004 0.12175,-0.0218 0.18254,-0.0159 0.78396,0.0764 0.18852,5.06225 -1.55996,1.81867 -0.42237,0.12129 -0.85809,0.19261 -1.26802,0.36139 -0.53378,0.16289 -1.0719,0.31017 -1.61001,0.456 -0.74284,0.22343 -1.47661,0.47936 -2.2234,0.68866 -0.53303,0.1815 -1.06289,0.37275 -1.57111,0.62352 -0.46164,0.1915 -0.91556,0.40158 -1.37329,0.60312 -0.54269,0.24034 -1.07965,0.49489 -1.60122,0.78356 0,0 1.51888,-1.76298 1.51888,-1.76298 z"
       id="path3501"
       style="fill:#000000;fill-opacity:1;fill-rule:nonzero;stroke:none;stroke-width:0.30434808"
       inkscape:connector-curvature="0" />
    <path
       id="path3783"
       d="m 542.0277,719.8808 c 0.33113,-0.20255 0.5776,-0.51963 0.84965,-0.79287 0.27065,-0.24213 0.54913,-0.47547 0.80875,-0.72951 0.30924,-0.27246 0.5814,-0.58258 0.8762,-0.87004 0.50359,-0.45931 0.96131,-0.96003 1.41349,-1.46854 0.40758,-0.46162 0.84823,-0.89289 1.25646,-1.35333 0.41541,-0.5171 0.86272,-1.01455 1.23072,-1.56746 0.29797,-0.45804 0.46539,-0.96826 0.63892,-1.48083 0.19299,-0.47876 0.31967,-0.96266 0.4078,-1.46923 0.057,-0.22068 0.14187,-0.42846 0.21349,-0.64354 0.009,-0.0296 0.0292,-0.31146 0.0954,-0.17055 4.39811,-2.45904 3.3335,-2.87854 3.34656,-1.1444 -0.0132,0.42018 -0.0397,0.84227 0.003,1.26132 0.11657,0.42865 0.14174,0.87331 0.20663,1.3106 0.0254,0.39801 0.0395,0.79503 0.0724,1.19241 0.003,0.53928 0.11467,1.07128 0.20103,1.60357 0.10177,0.43517 0.25239,0.85637 0.28875,1.30398 0.017,0.42405 0.18719,0.81749 0.24277,1.23269 0.0309,0.36668 0.13379,0.72109 0.1908,1.0829 0.0435,0.32905 0.0641,0.65934 0.11546,0.98752 0.0163,0.25937 0.006,0.51898 -0.004,0.77819 -0.0209,0.16156 0.0715,0.34252 -0.10115,-0.013 0.0548,-0.0388 0.0236,-0.0272 0.0947,-0.0318 0,0 -3.12628,2.24801 -3.12628,2.24801 v 0 c -0.0925,-0.0151 -0.0377,-0.002 -0.1617,-0.0484 -0.16729,-0.23561 -0.17007,-0.20332 -0.13663,-0.43464 0.0223,-0.24512 0.054,-0.48915 0.0545,-0.73597 -0.003,-0.32455 0.0131,0.0968 -0.0561,-0.3165 -0.0356,-0.21283 0.0179,-0.44402 -0.037,-0.65664 -0.0558,-0.36854 -0.16108,-0.73114 -0.19422,-1.09857 -0.0373,-0.42485 -0.18805,-0.82627 -0.25293,-1.24849 -0.0193,-0.4454 -0.13859,-0.85075 -0.23354,-1.28484 -0.10389,-0.53839 -0.2064,-1.08599 -0.24917,-1.62913 -0.0105,-0.3911 -0.0918,-0.78076 -0.0744,-1.17651 -0.0167,-0.43832 -0.078,-0.87206 -0.19027,-1.29657 -0.0776,-0.42859 -0.024,-0.86715 -0.0545,-1.30138 0.0562,-1.85634 -0.58235,-0.5463 3.39566,-2.53353 0.0637,0.12252 0.14914,0.35209 -0.003,0.42958 3.1e-4,0.25508 -0.0776,0.48885 -0.21735,0.70301 -0.0927,0.22821 -0.10285,0.45282 -0.15509,0.69284 -0.0898,0.41242 -0.0393,0.15736 -0.19049,0.53402 -0.0341,0.0849 -0.0587,0.17327 -0.0881,0.2599 -0.30601,1.2115 0.16253,-0.57326 -0.17818,0.51541 -0.0277,0.0885 -0.0259,0.18435 -0.0518,0.27342 -0.0822,0.28223 -0.27138,0.51 -0.38235,0.77932 -0.30968,0.60691 -0.8144,1.08452 -1.21282,1.63287 -0.39301,0.48213 -0.82672,0.90793 -1.25044,1.36473 -0.4591,0.49185 -0.8714,1.02151 -1.38064,1.46313 -0.27179,0.30873 -0.57609,0.5851 -0.84598,0.89365 -0.28723,0.22599 -0.52821,0.50581 -0.81053,0.73856 -0.31358,0.21903 -0.55567,0.52639 -0.79829,0.81958 0,0 -3.56558,1.39511 -3.56558,1.39511 z"
       inkscape:connector-curvature="0"
       style="stroke-width:0.30434808" />
    <use
       x="0"
       y="0"
       xlink:href="#path2824"
       id="use3781"
       width="100%"
       height="100%" />
  </g>
</svg>
